<svg version="1.1" id="Layer_1" xmlns="http://www.w3.org/2000/svg" xmlns:xlink="http://www.w3.org/1999/xlink" x="0px" y="0px"
	 width="100%" viewBox="0 0 319 281" enable-background="new 0 0 319 281" xml:space="preserve">
<path fill="#1C2328" opacity="1.000000" stroke="none" 
	d="
M177.000000,282.000000 
	C167.645767,282.000000 158.291550,282.000000 148.417847,281.720886 
	C147.583984,281.146759 147.269592,280.851685 146.955200,280.556641 
	C146.636810,281.037781 146.318405,281.518890 146.000000,282.000000 
	C144.933334,282.000000 143.866653,282.000000 142.316971,281.646973 
	C138.617371,279.922913 135.160782,277.044952 132.236755,277.510681 
	C126.981712,278.347626 126.238976,276.343140 125.880867,272.136658 
	C125.562737,268.399750 120.994576,264.886444 117.502464,265.096954 
	C112.764229,265.382507 112.194679,264.399323 114.047348,259.785614 
	C114.667511,258.241211 115.419815,255.301743 114.924797,255.009338 
	C112.827164,253.770294 110.313950,252.814957 107.893646,252.656509 
	C105.313675,252.487595 102.680115,253.491318 100.047363,253.705276 
	C93.265968,254.256424 90.513954,252.405228 89.294052,246.404602 
	C90.057236,245.860489 90.538368,245.455963 91.249527,245.306610 
	C94.862274,247.919098 97.020203,246.856522 97.956100,243.073837 
	C98.461548,241.030975 98.615639,238.901199 99.049500,236.504303 
	C102.039284,233.437119 104.907799,230.676270 108.108910,227.928772 
	C108.924171,227.280380 109.406845,226.618607 110.020203,225.659180 
	C111.426811,224.219406 112.702728,223.077255 114.054161,222.278351 
	C117.755150,226.851974 116.374336,233.343491 110.674881,237.048767 
	C107.941406,238.825836 105.925217,241.146408 107.523224,243.841446 
	C108.297112,245.146606 112.039017,245.350922 114.260155,244.983536 
	C117.542236,244.440674 119.539886,244.380524 121.456627,247.945694 
	C123.853645,252.404144 128.156906,251.068497 132.043564,249.454330 
	C135.881927,247.860199 136.599152,245.010406 135.614120,241.308990 
	C135.152084,239.572800 134.557007,237.779724 134.584427,236.021210 
	C134.717285,227.502960 137.435242,218.947845 134.057480,210.481979 
	C133.770172,209.761932 134.007187,208.832672 134.173676,207.701355 
	C136.476700,206.600708 138.606659,205.799301 140.834564,205.457520 
	C140.932495,219.397385 140.932495,232.877625 140.932495,246.852219 
	C145.481842,246.852219 149.267426,246.852219 153.113693,247.199524 
	C154.901657,249.794144 156.163101,249.487976 157.385666,246.713654 
	C158.848953,246.667114 159.925537,246.756012 161.057068,247.223145 
	C162.865448,248.302704 164.573807,249.173447 166.385574,249.655319 
	C168.034973,250.093994 170.029617,249.655991 171.467819,250.393143 
	C177.174530,253.318192 177.941605,253.160065 181.460144,247.106018 
	C184.581238,247.026474 187.253983,246.874283 189.905411,247.047836 
	C193.510712,247.283813 194.847351,245.995361 194.777649,242.188110 
	C194.473007,225.548340 194.457504,208.903259 194.513092,191.889618 
	C194.726715,188.986679 194.764313,186.454239 194.703690,183.522705 
	C194.555313,178.475204 194.470566,173.826889 194.460648,169.178391 
	C194.398529,140.075058 194.398209,110.971443 194.250397,81.868561 
	C194.229736,77.800285 196.092453,76.815277 199.717468,76.935425 
	C205.319260,77.121094 210.931732,76.984360 216.585571,76.984360 
	C216.585571,72.800148 216.585571,69.077438 216.585571,64.613358 
	C203.189880,64.613358 190.093094,64.613358 176.990204,64.247208 
	C175.989212,61.254089 174.994293,58.627121 173.998932,55.638012 
	C173.663803,54.183727 173.329163,53.091579 172.995514,51.556026 
	C172.380493,47.460758 175.014023,42.524307 168.816956,40.808487 
	C168.088257,41.073746 167.543823,41.536354 166.715820,42.157509 
	C165.294342,43.216335 164.156464,44.116615 162.868271,44.688469 
	C163.153610,41.714378 163.589249,39.068707 164.464615,36.329365 
	C167.595490,36.289551 170.286606,36.343403 172.988403,36.748260 
	C174.423599,40.278408 176.597000,42.966476 175.345078,47.163940 
	C174.547577,49.837841 177.529510,50.310532 179.892273,49.491550 
	C186.048447,47.357681 187.689148,42.020199 189.436584,36.390442 
	C191.230423,36.350796 192.617218,36.406467 193.991180,36.795166 
	C193.651230,38.414021 193.324081,39.699837 192.665131,41.058357 
	C190.504486,43.204010 188.059143,45.017891 187.044327,47.432892 
	C186.250076,49.322960 187.228821,51.958069 187.419815,54.262146 
	C189.422913,54.089226 191.678879,54.434910 193.365387,53.612644 
	C195.493271,52.575199 197.156616,50.584949 199.266068,49.272087 
	C199.990417,52.105873 201.355667,53.504280 204.318665,53.427444 
	C208.964294,53.898731 213.445587,54.280777 217.872223,53.944160 
	C220.028397,53.780193 222.530731,52.757542 224.107224,51.294708 
	C231.986313,43.983696 239.529266,36.310566 247.402954,28.993473 
	C248.737244,27.753496 251.108017,27.628841 253.009277,27.355816 
	C253.921036,28.963295 254.834946,30.195681 255.722931,31.446478 
	C256.817352,32.988102 257.890228,34.545067 258.608093,36.112099 
	C256.884583,36.911129 255.292343,37.454586 254.204956,38.515518 
	C248.259003,44.316772 243.011627,51.010780 236.434814,55.946327 
	C227.095215,62.955189 225.309784,71.446693 227.878067,81.914368 
	C225.638901,83.690842 223.782471,85.428764 221.462646,87.188004 
	C215.569077,87.209320 210.138885,87.209320 204.450256,87.209320 
	C204.450256,93.049812 204.450256,98.719078 204.450256,105.837814 
	C210.987106,99.313210 216.664474,93.646477 222.700623,88.048950 
	C228.646713,89.565041 229.080872,89.091591 229.028137,81.428032 
	C241.706787,68.891716 254.270309,56.662304 266.776825,44.488365 
	C266.027893,43.279915 265.425964,42.308689 264.979523,41.018463 
	C265.088806,39.445068 265.042633,38.190674 265.066895,36.570068 
	C268.587616,35.138660 272.037903,34.073463 275.592194,33.465271 
	C275.698303,35.420197 275.459900,36.964966 275.741119,38.408504 
	C277.733459,48.634892 273.068176,55.502037 265.780792,62.315220 
	C245.734833,81.056717 226.353226,100.509186 206.728485,119.700539 
	C202.864105,123.479568 203.086655,133.200745 206.941910,136.919617 
	C213.047440,142.809143 219.131073,148.723358 225.128891,154.722183 
	C241.468552,171.064651 257.758423,187.456879 274.049316,204.308594 
	C274.020569,211.911041 273.922333,219.036072 274.066956,226.156158 
	C274.100067,227.786804 274.969727,229.400452 275.565277,231.436966 
	C274.601379,232.653961 273.552948,234.101044 272.447174,234.146271 
	C267.634827,234.343155 262.766693,233.724915 257.993683,234.182877 
	C253.164261,234.646255 249.886215,232.799149 246.728210,229.475952 
	C233.448410,215.501495 220.033096,201.655746 206.646011,187.783508 
	C206.051712,187.167679 205.248367,186.753586 203.833298,185.735214 
	C203.833298,192.078171 203.750580,197.543396 203.900696,203.002228 
	C203.932007,204.140686 204.547119,205.535629 205.360611,206.339279 
	C218.181534,219.005569 231.046463,231.628052 244.008606,244.149506 
	C245.318344,245.414719 247.320953,245.962677 249.001465,247.296555 
	C248.669937,252.343018 249.238571,256.295319 252.981735,259.930786 
	C254.701401,261.601013 254.417465,265.644806 254.384644,268.605011 
	C254.375687,269.413177 251.977631,270.834381 250.687210,270.821777 
	C249.181351,270.807098 247.477890,269.774231 246.253799,268.724213 
	C245.231918,267.847656 245.077362,265.876129 244.017517,265.142883 
	C240.480316,262.695770 238.579483,260.242462 243.616150,256.199768 
	C241.488647,255.711288 239.984497,254.841751 239.208328,255.275345 
	C235.099289,257.570862 231.841049,257.016327 228.522858,253.628525 
	C227.783493,252.873672 225.118729,253.606110 223.565109,254.221237 
	C222.826355,254.513718 222.034103,256.853180 222.263885,257.040344 
	C223.390030,257.957611 224.852325,258.461853 226.194809,259.114105 
	C226.629456,259.325287 227.061066,259.542694 228.875748,260.441864 
	C226.713562,262.022217 225.307083,263.750854 223.578354,264.179291 
	C218.838440,265.354065 216.130219,268.138885 214.882095,272.746674 
	C214.400986,274.522797 213.424744,276.164856 212.397690,278.495087 
	C209.058304,275.611206 206.633286,273.033752 208.765808,269.515656 
	C210.514725,266.630432 209.320618,265.628632 207.123398,264.587219 
	C205.178070,263.665253 202.964035,263.158600 201.262054,261.925537 
	C200.024719,261.029053 198.586044,259.178925 198.692139,257.872162 
	C199.159592,252.115692 199.345093,252.124146 193.909042,251.904205 
	C194.272064,259.302338 194.583694,266.722839 195.028107,274.135345 
	C195.185883,276.766876 195.666656,279.378998 196.000000,282.000000 
	C192.638718,282.000000 189.277420,282.000000 185.458008,281.574554 
	C184.238220,279.455505 183.857422,276.853912 182.605667,276.328918 
	C181.403076,275.824554 179.054276,277.172791 177.687592,278.291504 
	C176.944458,278.899780 177.196716,280.724152 177.000000,282.000000 
M253.277985,218.231125 
	C255.043793,220.144241 256.809570,222.057373 258.566589,223.960983 
	C260.619751,221.483292 262.378754,219.089554 264.421753,216.969467 
	C266.575256,214.734711 266.079987,213.208405 264.027100,211.144791 
	C252.167877,199.223755 240.418335,187.193115 228.680374,175.152115 
	C220.851852,167.121475 213.104431,159.011795 205.320724,150.937485 
	C204.771652,151.225708 204.222565,151.513931 203.673477,151.802155 
	C203.673477,156.905090 203.536026,162.014374 203.771484,167.106400 
	C203.829315,168.356766 204.886963,169.767242 205.852661,170.738510 
	C221.459198,186.435318 237.125198,202.073029 253.277985,218.231125 
M169.224762,268.480774 
	C169.763718,269.130341 170.302658,269.779877 170.841614,270.429443 
	C171.176544,269.819366 171.511475,269.209290 171.846405,268.599213 
	C171.037598,268.352600 170.228790,268.105988 169.224762,268.480774 
z"/>
<path fill="#1E2529" opacity="1.000000" stroke="none" 
	d="
M196.468658,282.000000 
	C195.666656,279.378998 195.185883,276.766876 195.028107,274.135345 
	C194.583694,266.722839 194.272064,259.302338 193.909042,251.904205 
	C199.345093,252.124146 199.159592,252.115692 198.692139,257.872162 
	C198.586044,259.178925 200.024719,261.029053 201.262054,261.925537 
	C202.964035,263.158600 205.178070,263.665253 207.123398,264.587219 
	C209.320618,265.628632 210.514725,266.630432 208.765808,269.515656 
	C206.633286,273.033752 209.058304,275.611206 212.397690,278.495087 
	C213.424744,276.164856 214.400986,274.522797 214.882095,272.746674 
	C216.130219,268.138885 218.838440,265.354065 223.578354,264.179291 
	C225.307083,263.750854 226.713562,262.022217 228.875748,260.441864 
	C227.061066,259.542694 226.629456,259.325287 226.194809,259.114105 
	C224.852325,258.461853 223.390030,257.957611 222.263885,257.040344 
	C222.034103,256.853180 222.826355,254.513718 223.565109,254.221237 
	C225.118729,253.606110 227.783493,252.873672 228.522858,253.628525 
	C231.841049,257.016327 235.099289,257.570862 239.208328,255.275345 
	C239.984497,254.841751 241.488647,255.711288 243.616150,256.199768 
	C238.579483,260.242462 240.480316,262.695770 244.017517,265.142883 
	C245.077362,265.876129 245.231918,267.847656 246.253799,268.724213 
	C247.477890,269.774231 249.181351,270.807098 250.687210,270.821777 
	C251.977631,270.834381 254.375687,269.413177 254.384644,268.605011 
	C254.417465,265.644806 254.701401,261.601013 252.981735,259.930786 
	C249.238571,256.295319 248.669937,252.343018 249.450836,247.152039 
	C261.933655,246.698410 273.966522,246.842361 286.103943,247.350342 
	C291.285309,250.212982 296.348816,248.533203 298.730011,243.216202 
	C295.031799,241.487732 291.297028,239.742142 287.437347,237.553345 
	C287.387054,233.740631 287.461639,230.371109 287.873108,227.025360 
	C295.209229,232.645172 303.333130,231.863480 311.334381,230.726196 
	C312.998077,230.489716 315.110260,228.288620 315.601776,226.585022 
	C315.978394,225.279602 314.277740,223.229858 313.231018,221.695297 
	C311.909271,219.757584 310.298615,218.018555 308.838898,216.173004 
	C306.461670,213.167419 305.953217,208.545425 300.217041,208.561371 
	C298.595764,208.565872 296.645660,204.079605 295.467377,201.381714 
	C294.882751,200.043076 295.705811,198.089615 295.891998,196.414307 
	C296.369415,196.446899 296.846832,196.479507 297.324280,196.512100 
	C297.732819,197.712006 297.874512,199.119400 298.609833,200.065231 
	C299.843567,201.652145 301.594330,204.242081 302.880493,204.104279 
	C306.003082,203.769669 307.043457,199.704315 305.853699,196.609756 
	C304.879333,194.075623 304.071136,191.269989 304.109039,188.597733 
	C304.186646,183.124939 303.752808,178.015060 299.054108,174.133560 
	C299.679626,173.237442 299.991028,172.323380 300.618591,171.968597 
	C304.540100,169.751663 305.042175,166.769989 304.222473,162.418671 
	C303.439423,158.261978 303.089081,153.826385 307.479706,150.229599 
	C309.411987,148.646667 309.481018,144.509476 309.881256,141.464340 
	C310.058502,140.115601 309.192749,137.510849 308.398621,137.339600 
	C304.073486,136.406891 304.142487,134.161880 304.705292,130.390259 
	C305.300568,126.401375 305.761871,122.986855 309.573914,120.694107 
	C310.685791,120.025368 311.077209,118.158707 312.053711,116.375824 
	C310.327850,116.184830 309.521820,116.051491 308.711243,116.012741 
	C300.497620,115.620155 293.683380,108.600990 294.188263,100.614250 
	C294.267365,99.363213 296.139893,97.325523 297.303040,97.237564 
	C299.468750,97.073792 302.235687,97.441742 303.830475,98.729820 
	C306.914978,101.221115 309.359528,104.504715 312.083038,107.474831 
	C315.647644,104.848709 315.970764,101.490746 313.008209,97.550552 
	C311.933502,96.121185 310.474701,94.696762 310.119293,93.067612 
	C309.297943,89.302513 307.352844,88.045013 303.523743,87.865715 
	C296.750946,87.548576 289.213562,79.838097 290.149902,74.180832 
	C291.143372,68.178612 292.948975,62.310806 294.633606,55.429703 
	C290.351257,49.891682 290.356049,49.892998 292.721008,41.301022 
	C293.073639,40.019745 293.454315,38.734383 293.655518,37.425312 
	C294.413635,32.492630 294.532379,27.865761 289.430603,24.686609 
	C288.686523,24.222927 288.656586,20.920698 289.486725,19.950031 
	C291.713104,17.346724 290.974396,15.560688 289.002441,13.484900 
	C283.490356,7.682545 276.587830,6.280163 269.521698,9.773593 
	C266.794952,11.121668 264.645355,11.633319 262.949280,8.227814 
	C262.470612,7.266694 260.153625,6.137551 259.526093,6.510297 
	C255.499954,8.901689 252.840515,6.907664 249.710449,4.563963 
	C245.016953,1.049620 240.866211,2.904460 239.923050,8.812983 
	C239.496140,11.487296 239.959915,14.303790 239.917725,17.374533 
	C236.220322,21.158381 232.624832,24.623476 228.963577,27.690825 
	C228.929596,24.054464 229.193542,20.794220 228.894653,17.586418 
	C228.746567,15.996915 227.931870,13.978489 226.730225,13.134706 
	C225.781509,12.468527 223.154999,12.712469 222.351929,13.566342 
	C218.196472,17.984753 215.146378,16.471838 211.898849,12.477637 
	C208.843781,8.720160 205.356476,8.111566 201.027847,11.119651 
	C199.401276,12.250003 196.446396,12.251111 194.336807,11.752602 
	C188.761505,10.435123 187.486588,6.141558 188.000000,1.000000 
	C231.964127,1.000000 275.928253,1.000000 319.946198,1.000000 
	C319.946198,94.554405 319.946198,188.108856 319.946198,282.000000 
	C278.979706,282.000000 237.958511,282.000000 196.468658,282.000000 
z"/>
<path fill="#1E2529" opacity="1.000000" stroke="none" 
	d="
M89.012016,246.544205 
	C90.513954,252.405228 93.265968,254.256424 100.047363,253.705276 
	C102.680115,253.491318 105.313675,252.487595 107.893646,252.656509 
	C110.313950,252.814957 112.827164,253.770294 114.924797,255.009338 
	C115.419815,255.301743 114.667511,258.241211 114.047348,259.785614 
	C112.194679,264.399323 112.764229,265.382507 117.502464,265.096954 
	C120.994576,264.886444 125.562737,268.399750 125.880867,272.136658 
	C126.238976,276.343140 126.981712,278.347626 132.236755,277.510681 
	C135.160782,277.044952 138.617371,279.922913 141.916977,281.646973 
	C95.079201,282.000000 48.158409,282.000000 1.000000,282.000000 
	C1.000000,242.646088 1.000000,203.291702 1.418133,163.468307 
	C6.517617,162.699768 10.391273,162.464630 11.988148,156.157181 
	C12.750219,153.147095 18.171587,150.996338 21.867004,149.288116 
	C22.725660,148.891205 26.068014,151.577148 26.679691,153.382553 
	C28.263023,158.055817 25.390860,162.313751 19.560352,165.605850 
	C18.298235,166.318481 17.267422,167.440765 16.130068,168.374359 
	C17.403734,169.529099 18.496906,171.094223 19.989687,171.750763 
	C22.852591,173.009918 24.448118,174.020340 22.588127,177.623077 
	C21.814407,179.121765 23.140360,181.704437 23.511536,183.794189 
	C25.656038,182.872864 27.907755,182.131454 29.895382,180.946899 
	C30.761635,180.430649 30.963408,178.907410 31.679401,178.011215 
	C34.026260,175.073700 40.018280,175.325638 41.542347,178.627335 
	C44.075329,184.114655 50.243896,189.382446 42.816734,195.899124 
	C41.809406,196.782974 42.370785,199.996613 43.001678,201.862366 
	C43.181671,202.394638 46.164543,201.979126 47.964874,202.457092 
	C48.120537,216.950333 48.173450,230.984680 48.164639,245.307373 
	C48.403778,245.753601 48.704636,245.911484 49.450840,246.225281 
	C55.921032,246.280823 61.945873,246.180450 68.306168,246.203308 
	C70.773689,246.248383 72.905762,246.170258 75.486153,246.215759 
	C80.293655,246.407669 84.652840,246.475937 89.012016,246.544205 
z"/>
<path fill="#1E2529" opacity="1.000000" stroke="none" 
	d="
M1.000000,90.000000 
	C1.000000,60.392166 1.000000,30.784334 1.000000,1.000000 
	C44.687401,1.000000 88.375046,1.000000 132.478836,1.350631 
	C131.746735,4.384961 130.295807,5.694384 127.148026,3.971807 
	C126.295044,3.505024 124.270172,4.647206 123.069885,5.469439 
	C121.158112,6.779068 119.612694,9.536565 117.691475,9.757030 
	C110.415215,10.591997 103.052277,10.715001 95.717094,10.969715 
	C93.124733,11.059734 91.063255,11.475968 90.578629,14.743841 
	C76.316551,14.853450 62.446125,14.853450 47.921814,14.853450 
	C47.921814,26.243704 47.921814,37.122490 47.584930,48.083157 
	C45.281685,49.243549 43.170864,50.130161 41.397564,51.465122 
	C40.123489,52.424263 38.206200,54.296413 38.470646,55.216942 
	C39.461216,58.665077 40.663467,62.343605 42.854603,65.080544 
	C45.482498,68.363037 45.636452,71.111900 43.003223,73.881096 
	C38.163643,78.970551 36.167889,84.386894 39.767883,90.999809 
	C40.059093,91.534744 39.968887,92.304779 39.969593,92.965660 
	C39.972702,95.870316 39.006649,97.143379 35.679546,96.473862 
	C28.714935,95.072334 26.282436,88.662560 30.608660,82.817223 
	C31.552692,81.541702 31.803856,79.753387 32.374119,78.201241 
	C30.854752,78.086151 29.234751,77.572853 27.833939,77.926872 
	C22.573029,79.256439 17.794493,78.913269 13.385751,75.345352 
	C12.273867,74.445526 10.494308,74.370720 9.137803,73.952606 
	C8.438149,77.591209 7.872572,80.532547 7.306994,83.473877 
	C7.467612,83.886833 7.628230,84.299797 7.788847,84.712753 
	C13.162041,79.703079 17.738003,81.001312 20.984169,85.932022 
	C21.987831,87.456520 20.807743,90.418694 20.649370,92.443016 
	C13.043910,92.448494 8.171978,83.062233 1.000000,90.000000 
z"/>
<path fill="#1C2227" opacity="1.000000" stroke="none" 
	d="
M1.000000,90.449982 
	C8.171978,83.062233 13.043910,92.448494 20.649370,92.443016 
	C20.807743,90.418694 21.987831,87.456520 20.984169,85.932022 
	C17.738003,81.001312 13.162041,79.703079 7.788847,84.712753 
	C7.628230,84.299797 7.467612,83.886833 7.306994,83.473877 
	C7.872572,80.532547 8.438149,77.591209 9.137803,73.952606 
	C10.494308,74.370720 12.273867,74.445526 13.385751,75.345352 
	C17.794493,78.913269 22.573029,79.256439 27.833939,77.926872 
	C29.234751,77.572853 30.854752,78.086151 32.374119,78.201241 
	C31.803856,79.753387 31.552692,81.541702 30.608660,82.817223 
	C26.282436,88.662560 28.714935,95.072334 35.679546,96.473862 
	C39.006649,97.143379 39.972702,95.870316 39.969593,92.965660 
	C39.968887,92.304779 40.059093,91.534744 39.767883,90.999809 
	C36.167889,84.386894 38.163643,78.970551 43.003223,73.881096 
	C45.636452,71.111900 45.482498,68.363037 42.854603,65.080544 
	C40.663467,62.343605 39.461216,58.665077 38.470646,55.216942 
	C38.206200,54.296413 40.123489,52.424263 41.397564,51.465122 
	C43.170864,50.130161 45.281685,49.243549 47.676331,48.529896 
	C48.019260,51.930492 47.933907,54.966228 47.487583,58.023148 
	C43.457489,59.168259 45.519100,61.052811 46.320156,63.007244 
	C47.537502,65.977341 49.308632,69.091812 49.268776,72.124260 
	C49.197845,77.520866 48.093151,82.799408 49.860748,88.243599 
	C50.569241,90.425751 49.549316,93.227219 49.114552,95.711510 
	C47.812386,103.152260 45.821228,110.536797 45.328335,118.024193 
	C45.121529,121.165741 45.171223,123.565224 42.823032,125.863831 
	C38.448494,130.145996 38.995483,136.956207 46.056637,140.244293 
	C52.882332,143.422714 53.588306,146.771393 49.602829,153.157532 
	C48.763943,154.501724 48.204041,156.216385 48.114777,157.794250 
	C47.871544,162.093735 52.092583,161.972931 54.419018,163.738251 
	C55.612228,161.879166 57.458138,160.150436 57.860943,158.133499 
	C58.666195,154.101471 58.439560,149.867538 59.178677,145.815414 
	C59.382557,144.697647 61.492023,143.927475 62.814053,143.459442 
	C62.953053,151.561935 63.005135,159.202789 63.030617,167.220520 
	C61.474728,172.235382 58.623894,171.271500 55.787079,169.116394 
	C54.094872,167.830856 52.830750,166.524124 50.793190,168.652969 
	C48.959206,170.569138 48.705940,172.133911 50.602600,174.170151 
	C53.424370,177.199554 54.393398,180.394531 51.944084,184.424316 
	C50.391987,186.977921 49.851353,190.154083 53.375492,192.471405 
	C53.300365,193.211456 53.236359,193.631317 52.848988,194.177704 
	C50.971127,196.868912 49.416626,199.433578 47.862125,201.998230 
	C46.164543,201.979126 43.181671,202.394638 43.001678,201.862366 
	C42.370785,199.996613 41.809406,196.782974 42.816734,195.899124 
	C50.243896,189.382446 44.075329,184.114655 41.542347,178.627335 
	C40.018280,175.325638 34.026260,175.073700 31.679401,178.011215 
	C30.963408,178.907410 30.761635,180.430649 29.895382,180.946899 
	C27.907755,182.131454 25.656038,182.872864 23.511536,183.794189 
	C23.140360,181.704437 21.814407,179.121765 22.588127,177.623077 
	C24.448118,174.020340 22.852591,173.009918 19.989687,171.750763 
	C18.496906,171.094223 17.403734,169.529099 16.130068,168.374359 
	C17.267422,167.440765 18.298235,166.318481 19.560352,165.605850 
	C25.390860,162.313751 28.263023,158.055817 26.679691,153.382553 
	C26.068014,151.577148 22.725660,148.891205 21.867004,149.288116 
	C18.171587,150.996338 12.750219,153.147095 11.988148,156.157181 
	C10.391273,162.464630 6.517617,162.699768 1.418133,162.999649 
	C1.000000,152.312439 1.000000,141.624878 1.390770,130.470642 
	C3.246490,131.002289 4.612062,132.214417 6.198332,132.951691 
	C8.977761,134.243530 13.030110,136.973007 14.509326,135.999786 
	C17.416794,134.086868 16.199789,130.540573 14.090297,127.422783 
	C10.831553,122.606422 7.020412,119.780647 1.000000,121.000000 
	C1.000000,119.611107 1.000000,118.222221 1.377291,116.406021 
	C6.899466,114.864670 10.756440,112.788773 10.168571,106.415161 
	C10.072643,105.375114 12.115684,104.173241 13.100082,102.988022 
	C14.065746,101.825363 14.942136,100.588554 15.857704,99.384293 
	C14.552969,98.439148 13.161217,96.598907 11.959712,96.715706 
	C8.267347,97.074654 4.647831,98.182961 1.000000,99.000000 
	C1.000000,96.299988 1.000000,93.599968 1.000000,90.449982 
M9.474899,118.254189 
	C9.196193,118.059525 8.917487,117.864868 8.638782,117.670204 
	C8.817671,117.959373 8.996560,118.248543 9.474899,118.254189 
z"/>
<path fill="#1C2126" opacity="1.000000" stroke="none" 
	d="
M90.970268,14.634233 
	C91.063255,11.475968 93.124733,11.059734 95.717094,10.969715 
	C103.052277,10.715001 110.415215,10.591997 117.691475,9.757030 
	C119.612694,9.536565 121.158112,6.779068 123.069885,5.469439 
	C124.270172,4.647206 126.295044,3.505024 127.148026,3.971807 
	C130.295807,5.694384 131.746735,4.384961 132.947495,1.350631 
	C145.354233,1.000000 157.708450,1.000000 170.531403,1.419221 
	C171.225815,4.603186 170.268341,9.010488 175.047714,7.493921 
	C178.382874,6.435626 181.040009,3.240597 184.000000,1.000000 
	C185.066666,1.000000 186.133347,1.000000 187.600006,1.000000 
	C187.486588,6.141558 188.761505,10.435123 194.336807,11.752602 
	C196.446396,12.251111 199.401276,12.250003 201.027847,11.119651 
	C205.356476,8.111566 208.843781,8.720160 211.898849,12.477637 
	C215.146378,16.471838 218.196472,17.984753 222.351929,13.566342 
	C223.154999,12.712469 225.781509,12.468527 226.730225,13.134706 
	C227.931870,13.978489 228.746567,15.996915 228.894653,17.586418 
	C229.193542,20.794220 228.929596,24.054464 228.840424,27.999338 
	C222.114212,35.256325 215.445374,41.807053 208.397720,48.177727 
	C207.061722,45.748779 204.940933,43.178093 205.450668,41.334843 
	C206.047806,39.175522 208.834442,37.522190 210.877502,35.910751 
	C211.705032,35.258045 213.078064,35.299541 214.201233,35.018600 
	C217.699707,34.143486 219.704575,29.142624 217.032471,27.017460 
	C213.589630,24.279325 209.651672,20.962379 205.606857,20.457111 
	C199.139709,19.649242 194.159210,16.591103 188.806549,13.642179 
	C186.487320,12.364451 183.525482,11.783846 180.844604,11.749887 
	C177.447342,11.706853 173.910568,13.343998 170.663498,12.823787 
	C164.863892,11.894635 159.601868,11.821383 154.452423,15.179038 
	C152.972168,16.144226 150.589310,16.044067 148.649872,15.929876 
	C140.961639,15.477207 140.965485,15.403412 141.006027,23.099249 
	C141.009521,23.763180 141.025543,24.427048 140.982132,25.543848 
	C140.928513,29.184566 140.928513,32.372383 140.928513,35.645546 
	C142.509415,35.882660 143.751770,36.068996 144.994812,36.619766 
	C145.996994,39.323051 146.998489,41.661907 147.597748,44.001297 
	C145.454468,44.339310 143.713425,44.676788 141.737381,45.020164 
	C141.502380,45.026054 141.032318,45.035439 140.652222,45.029213 
	C137.180450,46.347458 134.088791,47.671925 130.841507,48.664078 
	C130.388214,47.736259 129.913361,47.166801 129.821396,46.541065 
	C129.189560,42.242603 125.339958,38.223610 130.226440,33.510342 
	C132.175598,31.630289 132.929459,26.459259 131.790436,23.850336 
	C129.310425,18.169926 121.371758,18.626795 118.441635,24.232841 
	C116.558540,27.835670 114.203049,28.848898 110.902657,26.405832 
	C107.094231,23.586702 103.440506,20.557140 99.746513,17.585514 
	C98.165245,16.313467 96.805458,13.821160 94.374481,16.745525 
	C93.045357,15.933793 92.007812,15.284013 90.970268,14.634233 
z"/>
<path fill="#1E2529" opacity="1.000000" stroke="none" 
	d="
M1.000000,99.467606 
	C4.647831,98.182961 8.267347,97.074654 11.959712,96.715706 
	C13.161217,96.598907 14.552969,98.439148 15.857704,99.384293 
	C14.942136,100.588554 14.065746,101.825363 13.100082,102.988022 
	C12.115684,104.173241 10.072643,105.375114 10.168571,106.415161 
	C10.756440,112.788773 6.899466,114.864670 1.377291,115.989357 
	C1.000000,110.645073 1.000000,105.290138 1.000000,99.467606 
z"/>
<path fill="#1E2529" opacity="1.000000" stroke="none" 
	d="
M1.000000,121.449982 
	C7.020412,119.780647 10.831553,122.606422 14.090297,127.422783 
	C16.199789,130.540573 17.416794,134.086868 14.509326,135.999786 
	C13.030110,136.973007 8.977761,134.243530 6.198332,132.951691 
	C4.612062,132.214417 3.246490,131.002289 1.390770,130.001984 
	C1.000000,127.299988 1.000000,124.599968 1.000000,121.449982 
z"/>
<path fill="#1E2529" opacity="1.000000" stroke="none" 
	d="
M183.536819,1.000000 
	C181.040009,3.240597 178.382874,6.435626 175.047714,7.493921 
	C170.268341,9.010488 171.225815,4.603186 171.000061,1.419221 
	C175.024551,1.000000 179.049088,1.000000 183.536819,1.000000 
z"/>
<path fill="#1E2529" opacity="1.000000" stroke="none" 
	d="
M177.444168,282.000000 
	C177.196716,280.724152 176.944458,278.899780 177.687592,278.291504 
	C179.054276,277.172791 181.403076,275.824554 182.605667,276.328918 
	C183.857422,276.853912 184.238220,279.455505 184.999939,281.574554 
	C182.629440,282.000000 180.258896,282.000000 177.444168,282.000000 
z"/>
<path fill="#1E2529" opacity="1.000000" stroke="none" 
	d="
M146.333344,282.000000 
	C146.318405,281.518890 146.636810,281.037781 146.955200,280.556641 
	C147.269592,280.851685 147.583984,281.146759 147.949188,281.720886 
	C147.555557,282.000000 147.111099,282.000000 146.333344,282.000000 
z"/>
<path fill="#F5F7F3" opacity="1.000000" stroke="none" 
	d="
M208.776550,48.357780 
	C215.445374,41.807053 222.114212,35.256325 228.906189,28.397085 
	C232.624832,24.623476 236.220322,21.158381 240.266373,17.171930 
	C242.120956,15.993410 243.519363,14.779390 244.929855,14.765217 
	C259.040802,14.623421 273.153687,14.679080 287.246887,14.679080 
	C287.246887,25.794989 287.016113,36.089531 287.323761,46.367954 
	C287.548676,53.881878 288.029633,61.204903 280.107635,65.531715 
	C280.014008,65.582848 280.035370,65.844475 279.732422,66.199539 
	C262.660797,82.983292 245.859802,99.575356 228.764008,116.312485 
	C224.306519,120.204788 220.143799,123.952034 217.613190,126.230080 
	C233.323303,142.867340 248.123291,158.540756 263.055969,174.514465 
	C270.773193,182.253296 278.357758,189.691803 286.135254,197.511795 
	C286.642761,199.440155 287.198395,200.981873 287.231598,202.534775 
	C287.405914,210.688828 287.448120,218.845703 287.536194,227.001602 
	C287.461639,230.371109 287.387054,233.740631 287.324402,237.980835 
	C286.890686,241.563110 286.445038,244.274704 285.999390,246.986298 
	C273.966522,246.842361 261.933655,246.698410 249.451416,246.698990 
	C247.320953,245.962677 245.318344,245.414719 244.008606,244.149506 
	C231.046463,231.628052 218.181534,219.005569 205.360611,206.339279 
	C204.547119,205.535629 203.932007,204.140686 203.900696,203.002228 
	C203.750580,197.543396 203.833298,192.078171 203.833298,185.735214 
	C205.248367,186.753586 206.051712,187.167679 206.646011,187.783508 
	C220.033096,201.655746 233.448410,215.501495 246.728210,229.475952 
	C249.886215,232.799149 253.164261,234.646255 257.993683,234.182877 
	C262.766693,233.724915 267.634827,234.343155 272.447174,234.146271 
	C273.552948,234.101044 274.601379,232.653961 275.684692,230.980606 
	C275.666443,222.744400 275.718475,215.377716 275.543732,208.016434 
	C275.510376,206.609879 274.582947,205.224533 274.068024,203.829391 
	C257.758423,187.456879 241.468552,171.064651 225.128891,154.722183 
	C219.131073,148.723358 213.047440,142.809143 206.941910,136.919617 
	C203.086655,133.200745 202.864105,123.479568 206.728485,119.700539 
	C226.353226,100.509186 245.734833,81.056717 265.780792,62.315220 
	C273.068176,55.502037 277.733459,48.634892 275.741119,38.408504 
	C275.459900,36.964966 275.698303,35.420197 275.701874,33.074631 
	C275.641815,31.154560 275.576080,30.082146 275.613525,28.669823 
	C274.810791,27.943890 273.904877,27.557865 272.628143,27.098022 
	C271.505219,27.064772 270.753143,27.105339 269.588074,27.074780 
	C267.782928,27.061218 266.390747,27.118782 264.574524,27.105661 
	C262.433838,27.061207 260.717194,27.087440 258.671875,27.027718 
	C257.895477,26.983084 257.447662,27.024405 256.606537,26.974621 
	C255.142105,26.918640 254.071014,26.953768 252.999924,26.988894 
	C251.108017,27.628841 248.737244,27.753496 247.402954,28.993473 
	C239.529266,36.310566 231.986313,43.983696 224.107224,51.294708 
	C222.530731,52.757542 220.028397,53.780193 217.872223,53.944160 
	C213.445587,54.280777 208.964294,53.898731 204.640045,53.297108 
	C206.108566,51.307068 207.442551,49.832428 208.776550,48.357780 
z"/>
<path fill="#F7FAF8" opacity="1.000000" stroke="none" 
	d="
M90.578629,14.743841 
	C92.007812,15.284013 93.045357,15.933793 94.528290,17.009777 
	C98.395729,20.780088 101.821983,24.119894 105.238953,27.469175 
	C112.974464,35.051437 120.705391,42.638371 128.591705,50.515617 
	C129.791260,51.855888 130.837280,52.903938 131.424622,54.004616 
	C126.377800,54.096607 121.771461,54.388508 117.209915,54.059406 
	C115.195595,53.914078 113.272148,52.509052 111.260544,51.460213 
	C110.521217,50.717522 109.828804,50.190533 108.968521,49.337009 
	C103.968018,44.400196 99.135391,39.789917 94.153122,34.908142 
	C92.735405,33.350967 91.599892,31.886799 90.167191,30.822798 
	C88.178139,29.345619 86.072769,27.330122 83.826424,27.044271 
	C79.622124,26.509268 75.280762,27.051373 70.541702,27.067816 
	C66.954178,26.990236 63.821354,26.990236 60.282089,26.990236 
	C60.282089,35.289925 60.208126,43.240292 60.367664,51.185970 
	C60.389740,52.285320 61.370556,53.558914 62.237446,54.419506 
	C83.984474,76.008438 105.774506,97.554070 127.560349,119.103889 
	C132.008377,123.503716 132.275635,133.015579 127.954781,137.372131 
	C121.274147,144.107941 114.510353,150.761215 107.793884,157.461563 
	C95.539871,169.686188 83.294693,181.919647 70.737427,194.266205 
	C67.049934,198.265778 63.670856,202.148544 60.215420,206.483536 
	C60.213394,210.599960 60.287727,214.264191 60.275192,218.369354 
	C60.341236,220.590256 60.494148,222.370224 60.520523,224.419342 
	C60.494423,225.060791 60.594860,225.433090 60.559875,226.242447 
	C60.554985,228.769775 60.685513,230.860046 60.623642,233.121979 
	C60.666569,233.543915 60.901894,233.794174 61.273140,234.052673 
	C61.409061,234.060898 61.680386,234.084320 62.166420,234.139771 
	C68.737480,234.149628 74.834206,234.299957 80.900307,233.937515 
	C82.689461,233.830612 84.392021,232.274307 86.438980,231.223724 
	C88.919861,228.747650 91.096024,226.430054 93.566315,223.982864 
	C95.602768,221.966248 97.345100,220.079224 99.393829,218.063522 
	C101.168793,216.303513 102.637352,214.672180 104.414917,212.919403 
	C112.833488,204.240509 120.943054,195.683044 129.324463,187.020386 
	C130.067505,186.612610 130.538712,186.310043 131.044556,186.449036 
	C131.120392,189.250961 131.161591,191.611313 131.117920,194.421875 
	C131.155746,197.915924 131.278427,200.959793 131.291397,204.296448 
	C131.095078,204.994659 131.008499,205.400116 130.611755,205.941025 
	C124.860619,211.362701 119.419632,216.648895 113.978645,221.935104 
	C112.702728,223.077255 111.426811,224.219406 109.730164,225.739243 
	C108.798386,226.716431 108.287346,227.315918 107.776306,227.915405 
	C104.907799,230.676270 102.039284,233.437119 98.740189,236.643433 
	C95.879585,239.743057 93.449547,242.397247 91.019501,245.051453 
	C90.538368,245.455963 90.057236,245.860489 89.294052,246.404602 
	C84.652840,246.475937 80.293655,246.407669 75.211853,245.947800 
	C72.316399,245.730835 70.143555,245.905472 67.970718,246.080093 
	C61.945873,246.180450 55.921032,246.280823 49.366173,246.019440 
	C48.686462,245.393631 48.483200,245.180756 48.226364,245.019043 
	C48.173450,230.984680 48.120537,216.950333 47.964874,202.457092 
	C49.416626,199.433578 50.971127,196.868912 53.123573,194.121552 
	C54.157291,193.203537 54.593060,192.468231 55.285980,191.477844 
	C65.083008,181.811920 74.622879,172.401062 84.331238,162.887177 
	C84.710426,162.617798 84.873657,162.413498 85.279434,161.992447 
	C96.675049,150.828659 107.780640,139.843689 117.672379,130.059402 
	C94.106819,105.739983 70.977684,81.870972 47.848553,58.001961 
	C47.933907,54.966228 48.019260,51.930492 48.013214,48.448017 
	C47.921814,37.122490 47.921814,26.243704 47.921814,14.853450 
	C62.446125,14.853450 76.316551,14.853450 90.578629,14.743841 
z"/>
<path fill="#F7FAF6" opacity="1.000000" stroke="none" 
	d="
M161.002106,246.844894 
	C159.925537,246.756012 158.848953,246.667114 157.005066,246.577103 
	C155.176178,246.668060 154.114594,246.760132 153.053024,246.852203 
	C149.267426,246.852219 145.481842,246.852219 140.932495,246.852219 
	C140.932495,232.877625 140.932495,219.397385 140.924988,204.996735 
	C140.777206,186.756104 140.636932,169.435867 140.613098,151.862061 
	C140.654419,151.067200 140.579300,150.525879 140.618622,149.663559 
	C140.664124,148.899597 140.595169,148.456650 140.642731,147.685303 
	C140.690414,146.903366 140.621552,146.449814 140.668930,145.540985 
	C140.749191,129.721771 140.713211,114.357849 140.779846,98.541161 
	C140.836670,94.061440 140.790909,90.034485 140.843109,85.569122 
	C140.941101,82.517242 140.941101,79.903763 140.941101,77.173866 
	C138.929504,77.173866 137.462402,77.173866 135.532944,77.098328 
	C129.808640,77.022781 124.546700,77.022781 119.394997,77.022781 
	C119.394997,72.654648 119.394997,68.924484 119.394997,64.922241 
	C121.074814,64.922241 122.374123,64.928688 123.673347,64.921272 
	C141.447678,64.819756 159.221985,64.716324 176.996307,64.613358 
	C190.093094,64.613358 203.189880,64.613358 216.585571,64.613358 
	C216.585571,69.077438 216.585571,72.800148 216.585571,76.984360 
	C210.931732,76.984360 205.319260,77.121094 199.717468,76.935425 
	C196.092453,76.815277 194.229736,77.800285 194.250397,81.868561 
	C194.398209,110.971443 194.398529,140.075058 194.460648,169.178391 
	C194.470566,173.826889 194.555313,178.475204 194.389252,183.802521 
	C194.227707,187.074341 194.282379,189.667221 194.337067,192.260117 
	C194.457504,208.903259 194.473007,225.548340 194.777649,242.188110 
	C194.847351,245.995361 193.510712,247.283813 189.905411,247.047836 
	C187.253983,246.874283 184.581238,247.026474 181.009415,247.028137 
	C173.734604,246.963470 167.368347,246.904190 161.002106,246.844894 
M183.300583,173.500214 
	C183.300583,141.433350 183.300583,109.366478 183.300583,77.105721 
	C172.631607,77.105721 162.539658,77.105721 152.206818,77.105721 
	C152.206818,129.597076 152.206818,181.959030 152.206818,234.514099 
	C162.607056,234.514099 172.689056,234.514099 183.301529,234.514099 
	C183.301529,214.358063 183.301529,194.429138 183.300583,173.500214 
z"/>
<path fill="#181E23" opacity="1.000000" stroke="none" 
	d="
M140.745132,86.007530 
	C140.790909,90.034485 140.836670,94.061440 140.413651,98.572754 
	C139.304489,99.868332 138.557983,100.617996 138.044815,101.502975 
	C136.789124,103.668556 136.031952,106.265472 134.371002,108.025047 
	C130.566498,112.055443 130.382080,114.756592 134.399139,118.601669 
	C138.590179,122.613281 138.903015,127.726852 136.623871,132.920486 
	C135.001068,136.618469 134.822815,140.950378 133.760529,145.247040 
	C130.369507,146.494461 128.558395,148.435974 128.912170,152.209045 
	C128.534805,152.637207 128.231308,152.806580 127.577652,152.871872 
	C126.476677,150.923767 125.725838,149.079727 124.605537,146.328293 
	C123.232330,148.005569 122.117180,149.061844 121.373444,150.335098 
	C119.377853,153.751526 117.430580,157.206100 115.676979,160.750809 
	C114.317230,163.499390 113.278328,166.406708 111.985649,169.551254 
	C109.374214,172.285904 106.873940,174.712753 103.933189,177.105286 
	C102.212387,177.084778 100.884804,176.884232 99.660904,177.154053 
	C96.431961,177.865829 95.754364,180.533173 97.818527,183.687073 
	C94.590828,186.986115 91.515694,189.959549 88.275604,192.570297 
	C84.979622,189.798798 80.592026,190.978104 77.882690,194.518906 
	C76.961823,195.722366 75.120964,196.575241 73.586006,196.797440 
	C72.881828,196.899399 71.901131,195.091339 71.045830,194.149429 
	C83.294693,181.919647 95.539871,169.686188 107.793884,157.461563 
	C114.510353,150.761215 121.274147,144.107941 127.954781,137.372131 
	C132.275635,133.015579 132.008377,123.503716 127.560349,119.103889 
	C105.774506,97.554070 83.984474,76.008438 62.237446,54.419506 
	C61.370556,53.558914 60.389740,52.285320 60.367664,51.185970 
	C60.208126,43.240292 60.282089,35.289925 60.282089,26.990236 
	C63.821354,26.990236 66.954178,26.990236 70.662842,27.421005 
	C77.737038,28.996075 83.457161,31.753002 88.817688,35.607700 
	C89.955231,36.425694 92.439156,35.371342 94.302765,35.179634 
	C99.135391,39.789917 103.968018,44.400196 108.567291,49.502018 
	C107.659935,51.555012 106.920410,53.096443 106.426437,54.712910 
	C106.383202,54.854389 108.556427,55.969086 108.676491,55.818039 
	C109.688629,54.544758 110.462173,53.081825 111.307449,51.675907 
	C113.272148,52.509052 115.195595,53.914078 117.209915,54.059406 
	C121.771461,54.388508 126.377800,54.096607 131.746933,54.171524 
	C136.655441,55.896660 140.685608,57.899326 144.950089,58.958775 
	C147.198944,59.517464 150.314590,59.144554 152.223053,57.920406 
	C155.132416,56.054249 157.341995,55.255859 160.261566,57.607437 
	C161.315918,58.456673 163.093353,59.134853 164.336121,58.882603 
	C167.617050,58.216656 170.785919,56.998482 173.999390,56.000153 
	C174.994293,58.627121 175.989212,61.254089 176.990204,64.247208 
	C159.221985,64.716324 141.447678,64.819756 123.673347,64.921272 
	C122.374123,64.928688 121.074814,64.922241 119.394997,64.922241 
	C119.394997,68.924484 119.394997,72.654648 119.394997,77.022781 
	C124.546700,77.022781 129.808640,77.022781 135.536804,77.485168 
	C136.863754,81.057816 136.006363,85.178917 140.745132,86.007530 
M69.878685,42.822006 
	C70.200096,44.152161 70.084625,45.918652 70.910210,46.745266 
	C79.574448,55.420364 88.387230,63.947163 97.163445,72.510361 
	C100.500084,75.766014 103.848358,79.009750 108.192215,83.231720 
	C108.192215,77.959785 108.080811,74.173592 108.225739,70.397224 
	C108.352852,67.085205 107.563461,64.612091 104.874153,62.170750 
	C98.109718,56.030033 91.467049,49.677532 85.447411,42.820168 
	C81.132874,37.905201 77.039917,34.545223 70.031464,37.063076 
	C69.002243,36.672447 67.973030,36.281818 66.943810,35.891186 
	C66.703026,36.946140 65.924423,38.352852 66.335541,38.981441 
	C67.144211,40.217880 68.613800,41.022057 69.878685,42.822006 
M130.864380,105.077049 
	C130.864380,99.193741 130.864380,93.310432 130.864380,87.239273 
	C124.514900,87.239273 118.653831,87.239273 112.640526,87.239273 
	C118.609917,93.415291 124.401550,99.407394 130.864380,105.077049 
z"/>
<path fill="#F3F7F3" opacity="1.000000" stroke="none" 
	d="
M253.027863,217.977631 
	C237.125198,202.073029 221.459198,186.435318 205.852661,170.738510 
	C204.886963,169.767242 203.829315,168.356766 203.771484,167.106400 
	C203.536026,162.014374 203.673477,156.905090 203.673477,151.802155 
	C204.222565,151.513931 204.771652,151.225708 205.320724,150.937485 
	C213.104431,159.011795 220.851852,167.121475 228.680374,175.152115 
	C240.418335,187.193115 252.167877,199.223755 264.027100,211.144791 
	C266.079987,213.208405 266.575256,214.734711 264.421753,216.969467 
	C262.378754,219.089554 260.619751,221.483292 258.566589,223.960983 
	C256.809570,222.057373 255.043793,220.144241 253.027863,217.977631 
z"/>
<path fill="#1A2125" opacity="1.000000" stroke="none" 
	d="
M114.054161,222.278351 
	C119.419632,216.648895 124.860619,211.362701 130.692505,206.289093 
	C132.055817,207.001312 133.028214,207.500961 134.000610,208.000610 
	C134.007187,208.832672 133.770172,209.761932 134.057480,210.481979 
	C137.435242,218.947845 134.717285,227.502960 134.584427,236.021210 
	C134.557007,237.779724 135.152084,239.572800 135.614120,241.308990 
	C136.599152,245.010406 135.881927,247.860199 132.043564,249.454330 
	C128.156906,251.068497 123.853645,252.404144 121.456627,247.945694 
	C119.539886,244.380524 117.542236,244.440674 114.260155,244.983536 
	C112.039017,245.350922 108.297112,245.146606 107.523224,243.841446 
	C105.925217,241.146408 107.941406,238.825836 110.674881,237.048767 
	C116.374336,233.343491 117.755150,226.851974 114.054161,222.278351 
z"/>
<path fill="#1A2125" opacity="1.000000" stroke="none" 
	d="
M208.397736,48.177734 
	C207.442551,49.832428 206.108566,51.307068 204.453186,52.912041 
	C201.355667,53.504280 199.990417,52.105873 199.259399,48.855057 
	C199.337387,43.824493 198.338699,40.588902 192.996948,40.985657 
	C193.324081,39.699837 193.651230,38.414021 194.271729,36.656021 
	C194.769073,36.139347 194.973053,36.094852 195.480850,36.044708 
	C196.189728,36.026947 196.594772,36.014832 197.226807,36.240799 
	C198.302322,36.652332 199.150848,36.825787 200.382385,36.928570 
	C203.136093,34.489620 204.208923,26.829496 202.020370,25.008804 
	C200.866241,24.048679 198.705978,24.297989 196.674744,24.056372 
	C195.849213,24.507467 195.348938,24.903412 194.490952,25.229549 
	C193.421204,25.023109 192.709152,24.886475 191.981995,24.398590 
	C188.974609,17.131685 187.789597,16.499477 180.545151,16.931751 
	C176.586761,17.167948 172.420639,17.720161 168.672241,16.804018 
	C162.787735,15.365789 157.928528,17.767567 152.982056,19.741049 
	C151.266876,20.425346 150.307220,23.003353 148.572266,24.828964 
	C145.773285,24.991322 143.404526,25.041134 141.035751,25.090946 
	C141.025543,24.427048 141.009521,23.763180 141.006027,23.099249 
	C140.965485,15.403412 140.961639,15.477207 148.649872,15.929876 
	C150.589310,16.044067 152.972168,16.144226 154.452423,15.179038 
	C159.601868,11.821383 164.863892,11.894635 170.663498,12.823787 
	C173.910568,13.343998 177.447342,11.706853 180.844604,11.749887 
	C183.525482,11.783846 186.487320,12.364451 188.806549,13.642179 
	C194.159210,16.591103 199.139709,19.649242 205.606857,20.457111 
	C209.651672,20.962379 213.589630,24.279325 217.032471,27.017460 
	C219.704575,29.142624 217.699707,34.143486 214.201233,35.018600 
	C213.078064,35.299541 211.705032,35.258045 210.877502,35.910751 
	C208.834442,37.522190 206.047806,39.175522 205.450668,41.334843 
	C204.940933,43.178093 207.061722,45.748779 208.397736,48.177734 
z"/>
<path fill="#F3F6F1" opacity="1.000000" stroke="none" 
	d="
M228.260803,81.875824 
	C225.309784,71.446693 227.095215,62.955189 236.434814,55.946327 
	C243.011627,51.010780 248.259003,44.316772 254.204956,38.515518 
	C255.292343,37.454586 256.884583,36.911129 258.772217,36.333267 
	C259.813812,36.714783 260.326996,36.891838 260.997955,37.354889 
	C262.378510,38.873074 263.601288,40.105263 264.824066,41.337456 
	C265.425964,42.308689 266.027893,43.279915 266.776825,44.488365 
	C254.270309,56.662304 241.706787,68.891716 228.859222,81.436134 
	C228.575180,81.751137 228.260803,81.875824 228.260803,81.875824 
z"/>
<path fill="#F8F9F7" opacity="1.000000" stroke="none" 
	d="
M191.997116,24.749840 
	C192.709152,24.886475 193.421204,25.023109 194.466385,25.520037 
	C194.902496,26.253351 195.005478,26.626375 195.026886,27.445063 
	C195.022568,30.610603 195.099808,33.330479 195.177032,36.050354 
	C194.973053,36.094852 194.769073,36.139347 194.284546,36.322990 
	C192.617218,36.406467 191.230423,36.350796 188.979248,36.280098 
	C183.069138,36.309132 178.023438,36.353195 172.977737,36.397263 
	C170.286606,36.343403 167.595490,36.289551 164.006561,36.224205 
	C158.069443,36.273838 153.030136,36.334961 147.626984,36.278076 
	C146.506805,36.191822 145.750473,36.223579 144.994125,36.255333 
	C143.751770,36.068996 142.509415,35.882660 140.928513,35.645546 
	C140.928513,32.372383 140.928513,29.184566 140.982132,25.543850 
	C143.404526,25.041134 145.773285,24.991322 149.029327,24.938957 
	C163.943436,24.874214 177.970276,24.812025 191.997116,24.749840 
z"/>
<path fill="#172026" opacity="1.000000" stroke="none" 
	d="
M134.173676,207.701355 
	C133.028214,207.500961 132.055817,207.001312 131.002670,206.153625 
	C131.008499,205.400116 131.095078,204.994659 131.642487,204.279556 
	C133.729340,201.768570 136.398621,199.730270 136.773178,197.333374 
	C137.665634,191.622284 136.162430,186.247849 130.594238,182.369156 
	C134.085159,179.345215 135.545181,176.014725 133.310440,171.828491 
	C134.744247,169.211609 136.337921,166.867218 136.878769,164.300919 
	C137.654877,160.618378 137.663254,156.774048 138.304367,152.865326 
	C139.238449,152.526474 139.867554,152.321060 140.496643,152.115631 
	C140.636932,169.435867 140.777206,186.756104 140.827057,204.537109 
	C138.606659,205.799301 136.476700,206.600708 134.173676,207.701355 
z"/>
<path fill="#161D22" opacity="1.000000" stroke="none" 
	d="
M173.998932,55.638012 
	C170.785919,56.998482 167.617050,58.216656 164.336121,58.882603 
	C163.093353,59.134853 161.315918,58.456673 160.261566,57.607437 
	C157.341995,55.255859 155.132416,56.054249 152.223053,57.920406 
	C150.314590,59.144554 147.198944,59.517464 144.950089,58.958775 
	C140.685608,57.899326 136.655441,55.896660 132.205627,54.118900 
	C130.837280,52.903938 129.791260,51.855888 128.950226,50.446846 
	C129.769165,49.722702 130.383148,49.359547 130.997116,48.996391 
	C134.088791,47.671925 137.180450,46.347458 140.640625,45.351868 
	C140.996063,46.112000 140.983017,46.543255 140.617783,47.041870 
	C139.726761,48.717163 138.354523,51.418652 138.788849,51.749649 
	C141.044724,53.468842 143.744568,55.588322 146.321960,55.631157 
	C148.992477,55.675545 152.133087,53.919250 151.989319,49.633347 
	C151.647324,47.858986 151.313583,46.450478 151.347809,45.045135 
	C155.472061,46.357891 159.228317,47.667480 162.945175,49.329056 
	C163.303345,51.240459 163.233597,53.561058 164.217651,54.165207 
	C165.427872,54.908222 167.579666,54.472366 169.207245,54.070843 
	C170.557816,53.737659 171.738541,52.716064 172.994507,51.999435 
	C173.329163,53.091579 173.663803,54.183727 173.998932,55.638012 
z"/>
<path fill="#EDF0EA" opacity="1.000000" stroke="none" 
	d="
M222.341843,87.979744 
	C216.664474,93.646477 210.987106,99.313210 204.450256,105.837814 
	C204.450256,98.719078 204.450256,93.049812 204.450256,87.209320 
	C210.138885,87.209320 215.569077,87.209320 221.531006,87.409492 
	C222.062729,87.609665 222.341843,87.979744 222.341843,87.979744 
z"/>
<path fill="#262C31" opacity="1.000000" stroke="none" 
	d="
M172.988403,36.748260 
	C178.023438,36.353195 183.069138,36.309132 188.572174,36.375412 
	C187.689148,42.020199 186.048447,47.357681 179.892273,49.491550 
	C177.529510,50.310532 174.547577,49.837841 175.345078,47.163940 
	C176.597000,42.966476 174.423599,40.278408 172.988403,36.748260 
z"/>
<path fill="#262C31" opacity="1.000000" stroke="none" 
	d="
M162.984589,48.977066 
	C159.228317,47.667480 155.472061,46.357891 151.101700,45.035030 
	C150.487610,45.021759 149.994797,45.007565 149.995087,44.619644 
	C149.327194,41.619846 148.658997,39.007965 147.990814,36.396084 
	C153.030136,36.334961 158.069443,36.273838 163.566818,36.317875 
	C163.589249,39.068707 163.153610,41.714378 162.868835,45.084454 
	C163.007980,46.864929 162.996277,47.921001 162.984589,48.977066 
z"/>
<path fill="#0E1319" opacity="1.000000" stroke="none" 
	d="
M192.665131,41.058357 
	C198.338699,40.588902 199.337387,43.824493 199.013672,48.588699 
	C197.156616,50.584949 195.493271,52.575199 193.365387,53.612644 
	C191.678879,54.434910 189.422913,54.089226 187.419815,54.262146 
	C187.228821,51.958069 186.250076,49.322960 187.044327,47.432892 
	C188.059143,45.017891 190.504486,43.204010 192.665131,41.058357 
z"/>
<path fill="#1B2227" opacity="1.000000" stroke="none" 
	d="
M260.840179,37.068893 
	C260.326996,36.891838 259.813812,36.714783 259.136536,36.316566 
	C257.890228,34.545067 256.817352,32.988102 255.722931,31.446478 
	C254.834946,30.195681 253.921036,28.963295 253.009277,27.355816 
	C254.071014,26.953768 255.142105,26.918640 256.658569,27.245384 
	C257.736145,27.442728 258.368347,27.278204 259.000519,27.113676 
	C260.717194,27.087440 262.433838,27.061207 264.562653,27.465734 
	C264.839111,29.098362 264.703430,30.300232 264.566620,31.512058 
	C269.478363,31.877951 269.478363,31.877951 270.001038,27.145906 
	C270.753143,27.105339 271.505219,27.064772 272.687744,27.385952 
	C273.915558,28.168379 274.712952,28.589058 275.510315,29.009735 
	C275.576080,30.082146 275.641815,31.154560 275.597870,32.617619 
	C272.037903,34.073463 268.587616,35.138660 264.651276,36.584522 
	C263.056885,36.999756 261.948517,37.034325 260.840179,37.068893 
z"/>
<path fill="#10161B" opacity="1.000000" stroke="none" 
	d="
M162.945175,49.329056 
	C162.996277,47.921001 163.007980,46.864929 163.019135,45.412880 
	C164.156464,44.116615 165.294342,43.216335 167.007004,42.125969 
	C168.054916,41.625870 168.528076,41.315853 169.001221,41.005836 
	C175.014023,42.524307 172.380493,47.460758 172.995514,51.556030 
	C171.738541,52.716064 170.557816,53.737659 169.207245,54.070843 
	C167.579666,54.472366 165.427872,54.908222 164.217651,54.165207 
	C163.233597,53.561058 163.303345,51.240459 162.945175,49.329056 
z"/>
<path fill="#1E2529" opacity="1.000000" stroke="none" 
	d="
M161.057068,247.223145 
	C167.368347,246.904190 173.734604,246.963470 180.551575,247.100647 
	C177.941605,253.160065 177.174530,253.318192 171.467819,250.393143 
	C170.029617,249.655991 168.034973,250.093994 166.385574,249.655319 
	C164.573807,249.173447 162.865448,248.302704 161.057068,247.223145 
z"/>
<path fill="#22292E" opacity="1.000000" stroke="none" 
	d="
M274.049316,204.308594 
	C274.582947,205.224533 275.510376,206.609879 275.543732,208.016434 
	C275.718475,215.377716 275.666443,222.744400 275.573792,230.565552 
	C274.969727,229.400452 274.100067,227.786804 274.066956,226.156158 
	C273.922333,219.036072 274.020569,211.911041 274.049316,204.308594 
z"/>
<path fill="#1A2125" opacity="1.000000" stroke="none" 
	d="
M91.249527,245.306610 
	C93.449547,242.397247 95.879585,239.743057 98.618935,236.949738 
	C98.615639,238.901199 98.461548,241.030975 97.956100,243.073837 
	C97.020203,246.856522 94.862274,247.919098 91.249527,245.306610 
z"/>
<path fill="#10161B" opacity="1.000000" stroke="none" 
	d="
M222.700623,88.048950 
	C222.341843,87.979744 222.062729,87.609665 221.994385,87.388184 
	C223.782471,85.428764 225.638901,83.690842 227.878067,81.914368 
	C228.260803,81.875824 228.575180,81.751137 228.744080,81.743034 
	C229.080872,89.091591 228.646713,89.565041 222.700623,88.048950 
z"/>
<path fill="#293036" opacity="1.000000" stroke="none" 
	d="
M260.997955,37.354889 
	C261.948517,37.034325 263.056885,36.999756 264.580841,36.950733 
	C265.042633,38.190674 265.088806,39.445068 264.979523,41.018459 
	C263.601288,40.105263 262.378510,38.873074 260.997955,37.354889 
z"/>
<path fill="#1A2125" opacity="1.000000" stroke="none" 
	d="
M169.322372,268.170044 
	C170.228790,268.105988 171.037598,268.352600 171.846405,268.599213 
	C171.511475,269.209290 171.176544,269.819366 170.841614,270.429443 
	C170.302658,269.779877 169.763718,269.130341 169.322372,268.170044 
z"/>
<path fill="#9FA7AB" opacity="1.000000" stroke="none" 
	d="
M194.513092,191.889618 
	C194.282379,189.667221 194.227707,187.074341 194.487457,184.201614 
	C194.764313,186.454239 194.726715,188.986679 194.513092,191.889618 
z"/>
<path fill="#1E2529" opacity="1.000000" stroke="none" 
	d="
M153.113693,247.199524 
	C154.114594,246.760132 155.176178,246.668060 156.618347,246.712524 
	C156.163101,249.487976 154.901657,249.794144 153.113693,247.199524 
z"/>
<path fill="#1A2125" opacity="1.000000" stroke="none" 
	d="
M108.108902,227.928772 
	C108.287346,227.315918 108.798386,226.716431 109.599472,226.036896 
	C109.406845,226.618607 108.924171,227.280380 108.108902,227.928772 
z"/>
<path fill="#181E23" opacity="1.000000" stroke="none" 
	d="
M168.816956,40.808487 
	C168.528076,41.315853 168.054916,41.625870 167.290588,41.967422 
	C167.543823,41.536354 168.088257,41.073746 168.816956,40.808487 
z"/>
<path fill="#1B2227" opacity="1.000000" stroke="none" 
	d="
M287.873108,227.025360 
	C287.448120,218.845703 287.405914,210.688828 287.231598,202.534775 
	C287.198395,200.981873 286.642761,199.440155 286.273224,197.183380 
	C287.341064,190.494476 283.346527,186.418182 280.351227,182.284653 
	C277.630646,178.530197 277.693512,175.156464 278.855652,171.105499 
	C279.508789,168.828934 279.684052,166.252548 279.392242,163.895721 
	C278.104950,153.498825 277.215210,143.324951 283.255798,133.743561 
	C284.537231,131.711014 284.770660,126.695511 283.516357,125.792946 
	C278.387268,122.102242 277.269836,118.008537 279.627411,112.462143 
	C279.929108,111.752411 279.966034,110.772690 279.751495,110.025444 
	C277.707001,102.904160 279.415985,96.231598 282.160217,89.713066 
	C283.634766,86.210518 282.143463,84.259384 278.996979,83.217377 
	C273.215546,81.302773 272.810181,80.015923 277.004303,75.529030 
	C279.555450,72.799789 282.345306,70.237862 280.003052,66.007851 
	C280.035370,65.844475 280.014008,65.582848 280.107635,65.531715 
	C288.029633,61.204903 287.548676,53.881878 287.323761,46.367954 
	C287.016113,36.089531 287.246887,25.794989 287.246887,14.679080 
	C273.153687,14.679080 259.040802,14.623421 244.929855,14.765217 
	C243.519363,14.779390 242.120956,15.993410 240.368286,16.853178 
	C239.959915,14.303790 239.496140,11.487296 239.923050,8.812983 
	C240.866211,2.904460 245.016953,1.049620 249.710449,4.563963 
	C252.840515,6.907664 255.499954,8.901689 259.526093,6.510297 
	C260.153625,6.137551 262.470612,7.266694 262.949280,8.227814 
	C264.645355,11.633319 266.794952,11.121668 269.521698,9.773593 
	C276.587830,6.280163 283.490356,7.682545 289.002441,13.484900 
	C290.974396,15.560688 291.713104,17.346724 289.486725,19.950031 
	C288.656586,20.920698 288.686523,24.222927 289.430603,24.686609 
	C294.532379,27.865761 294.413635,32.492630 293.655518,37.425312 
	C293.454315,38.734383 293.073639,40.019745 292.721008,41.301022 
	C290.356049,49.892998 290.351257,49.891682 294.633606,55.429703 
	C292.948975,62.310806 291.143372,68.178612 290.149902,74.180832 
	C289.213562,79.838097 296.750946,87.548576 303.523743,87.865715 
	C307.352844,88.045013 309.297943,89.302513 310.119293,93.067612 
	C310.474701,94.696762 311.933502,96.121185 313.008209,97.550552 
	C315.970764,101.490746 315.647644,104.848709 312.083038,107.474831 
	C309.359528,104.504715 306.914978,101.221115 303.830475,98.729820 
	C302.235687,97.441742 299.468750,97.073792 297.303040,97.237564 
	C296.139893,97.325523 294.267365,99.363213 294.188263,100.614250 
	C293.683380,108.600990 300.497620,115.620155 308.711243,116.012741 
	C309.521820,116.051491 310.327850,116.184830 312.053711,116.375824 
	C311.077209,118.158707 310.685791,120.025368 309.573914,120.694107 
	C305.761871,122.986855 305.300568,126.401375 304.705292,130.390259 
	C304.142487,134.161880 304.073486,136.406891 308.398621,137.339600 
	C309.192749,137.510849 310.058502,140.115601 309.881256,141.464340 
	C309.481018,144.509476 309.411987,148.646667 307.479706,150.229599 
	C303.089081,153.826385 303.439423,158.261978 304.222473,162.418671 
	C305.042175,166.769989 304.540100,169.751663 300.618591,171.968597 
	C299.991028,172.323380 299.679626,173.237442 299.054108,174.133560 
	C303.752808,178.015060 304.186646,183.124939 304.109039,188.597733 
	C304.071136,191.269989 304.879333,194.075623 305.853699,196.609756 
	C307.043457,199.704315 306.003082,203.769669 302.880493,204.104279 
	C301.594330,204.242081 299.843567,201.652145 298.609833,200.065231 
	C297.874512,199.119400 297.732819,197.712006 297.324280,196.512100 
	C296.846832,196.479507 296.369415,196.446899 295.891998,196.414307 
	C295.705811,198.089615 294.882751,200.043076 295.467377,201.381714 
	C296.645660,204.079605 298.595764,208.565872 300.217041,208.561371 
	C305.953217,208.545425 306.461670,213.167419 308.838898,216.173004 
	C310.298615,218.018555 311.909271,219.757584 313.231018,221.695297 
	C314.277740,223.229858 315.978394,225.279602 315.601776,226.585022 
	C315.110260,228.288620 312.998077,230.489716 311.334381,230.726196 
	C303.333130,231.863480 295.209229,232.645172 287.873108,227.025360 
M289.550049,167.106247 
	C291.480530,164.608780 293.112701,162.140793 289.975586,159.301773 
	C289.464966,158.839661 289.015747,157.467957 289.297913,157.101242 
	C292.242981,153.273422 288.854462,151.577515 286.878540,149.354248 
	C283.741913,145.825012 285.291992,139.382339 289.494659,137.240295 
	C291.166046,136.388397 293.815186,134.391296 293.601807,133.484116 
	C292.982361,130.850189 291.138855,128.504135 289.775574,126.045143 
	C289.282135,126.303085 288.788666,126.561035 288.295227,126.818977 
	C288.333466,127.437019 288.159668,128.182968 288.443268,128.652969 
	C290.823334,132.597290 290.221741,135.242279 285.783325,137.391953 
	C284.323975,138.098770 282.954346,141.081787 283.183868,142.805527 
	C283.978943,148.776413 285.576019,154.636185 286.685455,160.572342 
	C286.989288,162.198151 286.814789,163.965637 286.583069,165.629547 
	C285.864990,170.785294 284.904510,175.909775 284.302551,181.077194 
	C284.176361,182.160507 285.179779,183.375397 285.772186,184.791458 
	C287.006256,178.572632 288.080353,173.159927 289.550049,167.106247 
M285.196136,101.436829 
	C284.839172,105.074326 285.142731,108.944618 283.962982,112.292145 
	C282.384125,116.772125 282.570557,119.552879 285.472473,121.513870 
	C288.935455,109.719391 287.859711,97.280991 287.540466,84.849701 
	C286.969208,84.820221 286.397949,84.790733 285.826660,84.761253 
	C285.500946,90.063477 285.175201,95.365707 285.196136,101.436829 
M297.241943,216.944000 
	C296.663391,220.617355 298.952667,221.280411 301.721680,220.818039 
	C302.532074,220.682693 303.108826,219.148193 303.792664,218.254990 
	C301.957428,217.367538 300.128815,216.465347 298.270844,215.628448 
	C298.156830,215.577103 297.810638,216.041183 297.241943,216.944000 
M284.879242,72.094261 
	C284.294586,72.306343 283.183258,72.618179 283.201782,72.716042 
	C283.764954,75.689690 284.439301,78.642288 285.096313,81.598167 
	C285.675415,81.471329 286.254517,81.344490 286.833618,81.217651 
	C286.315369,78.381142 285.797119,75.544624 284.879242,72.094261 
M299.588470,121.174423 
	C299.298462,120.612244 299.008484,120.050064 298.718506,119.487885 
	C298.306976,119.893936 297.895416,120.299995 297.483856,120.706039 
	C298.041595,121.003647 298.599365,121.301254 299.588470,121.174423 
z"/>
<path fill="#1B2227" opacity="1.000000" stroke="none" 
	d="
M286.103943,247.350342 
	C286.445038,244.274704 286.890686,241.563110 287.449280,238.424042 
	C291.297028,239.742142 295.031799,241.487732 298.730011,243.216202 
	C296.348816,248.533203 291.285309,250.212982 286.103943,247.350342 
z"/>
<path fill="#F5F7F3" opacity="1.000000" stroke="none" 
	d="
M68.306168,246.203308 
	C70.143555,245.905472 72.316399,245.730835 74.763535,245.824158 
	C72.905762,246.170258 70.773689,246.248383 68.306168,246.203308 
z"/>
<path fill="#F5F7F3" opacity="1.000000" stroke="none" 
	d="
M48.164642,245.307373 
	C48.483200,245.180756 48.686462,245.393631 48.920822,245.863525 
	C48.704636,245.911484 48.403778,245.753601 48.164642,245.307373 
z"/>
<path fill="#1A2126" opacity="1.000000" stroke="none" 
	d="
M84.162758,162.990204 
	C74.622879,172.401062 65.083008,181.811920 55.075562,191.346298 
	C54.200863,191.696960 53.793739,191.924088 53.386612,192.151215 
	C49.851353,190.154083 50.391987,186.977921 51.944084,184.424316 
	C54.393398,180.394531 53.424370,177.199554 50.602600,174.170151 
	C48.705940,172.133911 48.959206,170.569138 50.793190,168.652969 
	C52.830750,166.524124 54.094872,167.830856 55.787079,169.116394 
	C58.623894,171.271500 61.474728,172.235382 63.358913,167.169617 
	C65.071732,165.287109 66.318916,163.706238 67.807404,162.400391 
	C73.243088,157.631653 75.626129,152.195541 75.135330,144.505920 
	C74.301575,131.443024 74.976051,118.285484 74.934593,105.167976 
	C74.930214,103.779854 74.819756,102.004318 74.001610,101.074478 
	C70.684952,97.305038 67.072571,93.795799 62.911842,89.513992 
	C62.911842,93.088531 62.935379,95.564751 62.905441,98.040321 
	C62.873367,100.692482 62.790955,103.344025 62.368053,106.011932 
	C58.060959,108.226051 55.954243,114.256149 58.213867,118.150612 
	C59.109997,119.695099 61.209972,120.541100 62.841667,122.126511 
	C62.856705,129.364548 62.791916,136.181168 62.727127,142.997803 
	C61.492023,143.927475 59.382557,144.697647 59.178677,145.815414 
	C58.439560,149.867538 58.666195,154.101471 57.860943,158.133499 
	C57.458138,160.150436 55.612228,161.879166 54.419018,163.738251 
	C52.092583,161.972931 47.871544,162.093735 48.114777,157.794250 
	C48.204041,156.216385 48.763943,154.501724 49.602829,153.157532 
	C53.588306,146.771393 52.882332,143.422714 46.056637,140.244293 
	C38.995483,136.956207 38.448494,130.145996 42.823032,125.863831 
	C45.171223,123.565224 45.121529,121.165741 45.328335,118.024193 
	C45.821228,110.536797 47.812386,103.152260 49.114552,95.711510 
	C49.549316,93.227219 50.569241,90.425751 49.860748,88.243599 
	C48.093151,82.799408 49.197845,77.520866 49.268776,72.124260 
	C49.308632,69.091812 47.537502,65.977341 46.320156,63.007244 
	C45.519100,61.052811 43.457489,59.168259 47.487587,58.023144 
	C70.977684,81.870972 94.106819,105.739983 117.672379,130.059402 
	C107.780640,139.843689 96.675049,150.828659 85.021965,161.960938 
	C84.370567,162.402222 84.266663,162.696213 84.162758,162.990204 
M85.178795,115.364998 
	C85.178795,124.870644 85.178795,134.376282 85.178795,143.881927 
	C85.575111,144.018326 85.971436,144.154709 86.367752,144.291107 
	C91.438461,138.943939 96.509163,133.596771 101.761429,128.058151 
	C97.079445,123.453377 92.348518,118.771660 87.576218,114.132523 
	C86.680794,113.262093 85.295944,110.844635 85.178795,115.364998 
z"/>
<path fill="#F7FAF6" opacity="1.000000" stroke="none" 
	d="
M62.730507,105.995842 
	C62.790955,103.344025 62.873367,100.692482 62.905441,98.040321 
	C62.935379,95.564751 62.911842,93.088531 62.911842,89.513992 
	C67.072571,93.795799 70.684952,97.305038 74.001610,101.074478 
	C74.819756,102.004318 74.930214,103.779854 74.934593,105.167976 
	C74.976051,118.285484 74.301575,131.443024 75.135330,144.505920 
	C75.626129,152.195541 73.243088,157.631653 67.807404,162.400391 
	C66.318916,163.706238 65.071732,165.287109 63.385513,166.792709 
	C63.005135,159.202789 62.953053,151.561935 62.814049,143.459442 
	C62.791916,136.181168 62.856705,129.364548 62.922600,121.736435 
	C62.859306,115.948586 62.794907,110.972214 62.730507,105.995842 
z"/>
<path fill="#F5F7F3" opacity="1.000000" stroke="none" 
	d="
M53.375496,192.471405 
	C53.793739,191.924088 54.200863,191.696960 54.818405,191.601364 
	C54.593060,192.468231 54.157291,193.203537 53.446934,193.995010 
	C53.236359,193.631317 53.300365,193.211456 53.375496,192.471405 
z"/>
<path fill="#1E2529" opacity="1.000000" stroke="none" 
	d="
M9.325174,118.395950 
	C8.996560,118.248543 8.817671,117.959373 8.638782,117.670204 
	C8.917487,117.864868 9.196193,118.059525 9.325174,118.395950 
z"/>
<path fill="#1D2328" opacity="1.000000" stroke="none" 
	d="
M130.841507,48.664074 
	C130.383148,49.359547 129.769165,49.722702 128.796692,50.154633 
	C120.705391,42.638371 112.974464,35.051437 105.238953,27.469175 
	C101.821983,24.119894 98.395729,20.780088 94.819870,17.171730 
	C96.805458,13.821160 98.165245,16.313467 99.746513,17.585514 
	C103.440506,20.557140 107.094231,23.586702 110.902657,26.405832 
	C114.203049,28.848898 116.558540,27.835670 118.441635,24.232841 
	C121.371758,18.626795 129.310425,18.169926 131.790436,23.850336 
	C132.929459,26.459259 132.175598,31.630289 130.226440,33.510342 
	C125.339958,38.223610 129.189560,42.242603 129.821396,46.541065 
	C129.913361,47.166801 130.388214,47.736259 130.841507,48.664074 
z"/>
<path fill="#0E1319" opacity="1.000000" stroke="none" 
	d="
M149.994797,45.007565 
	C149.994797,45.007565 150.487610,45.021759 150.733734,45.031868 
	C151.313583,46.450478 151.647324,47.858986 151.640930,49.713326 
	C148.822891,51.015362 146.305023,52.556026 143.885391,52.414688 
	C142.811310,52.351948 141.935669,48.892265 140.969955,46.974510 
	C140.983017,46.543255 140.996063,46.112000 141.020721,45.358093 
	C141.032318,45.035439 141.502380,45.026054 142.169128,45.021423 
	C144.556686,45.009476 146.277481,45.002167 148.331024,45.001953 
	C149.107452,45.008556 149.551117,45.008060 149.994797,45.007565 
z"/>
<path fill="#1E2529" opacity="1.000000" stroke="none" 
	d="
M149.995087,44.619644 
	C149.551117,45.008060 149.107452,45.008556 148.331787,44.753464 
	C147.999817,44.497871 148.000000,44.000763 148.000000,44.000763 
	C146.998489,41.661907 145.996994,39.323051 144.994812,36.619766 
	C145.750473,36.223579 146.506805,36.191822 147.626984,36.278076 
	C148.658997,39.007965 149.327194,41.619846 149.995087,44.619644 
z"/>
<path fill="#262C31" opacity="1.000000" stroke="none" 
	d="
M147.597748,44.001297 
	C148.000000,44.000763 147.999817,44.497871 147.999054,44.746365 
	C146.277481,45.002167 144.556686,45.009476 142.404129,45.015530 
	C143.713425,44.676788 145.454468,44.339310 147.597748,44.001297 
z"/>
<path fill="#181E23" opacity="1.000000" stroke="none" 
	d="
M279.732422,66.199539 
	C282.345306,70.237862 279.555450,72.799789 277.004303,75.529030 
	C272.810181,80.015923 273.215546,81.302773 278.996979,83.217377 
	C282.143463,84.259384 283.634766,86.210518 282.160217,89.713066 
	C279.415985,96.231598 277.707001,102.904160 279.751495,110.025444 
	C279.966034,110.772690 279.929108,111.752411 279.627411,112.462143 
	C277.269836,118.008537 278.387268,122.102242 283.516357,125.792946 
	C284.770660,126.695511 284.537231,131.711014 283.255798,133.743561 
	C277.215210,143.324951 278.104950,153.498825 279.392242,163.895721 
	C279.684052,166.252548 279.508789,168.828934 278.855652,171.105499 
	C277.693512,175.156464 277.630646,178.530197 280.351227,182.284653 
	C283.346527,186.418182 287.341064,190.494476 286.080261,196.801910 
	C278.357758,189.691803 270.773193,182.253296 263.073120,174.075562 
	C263.475128,169.244019 261.934998,166.528122 258.855988,163.484833 
	C256.466492,161.123032 255.719818,156.461578 255.577484,152.770844 
	C255.518768,151.248703 258.952576,149.591858 260.888855,148.430206 
	C261.431549,151.613693 261.236603,154.717041 262.498352,157.023407 
	C264.082031,159.918167 266.859558,162.159790 269.098083,165.045959 
	C269.485168,166.418121 269.896057,167.427582 270.306915,168.437057 
	C270.870270,168.037170 271.433655,167.637283 272.289368,167.139114 
	C272.782288,166.684769 272.982819,166.328705 273.356964,165.810287 
	C273.408508,165.106155 273.286469,164.564392 273.070740,163.560806 
	C272.977020,139.043793 272.977020,114.988617 272.977020,90.102104 
	C269.618561,93.241501 267.043274,96.014702 264.089630,98.298531 
	C261.547791,100.263908 260.947540,102.453598 261.049164,105.557495 
	C261.261047,112.030083 260.938080,118.520180 260.452087,124.976227 
	C259.390839,124.169540 258.176025,123.422546 258.125946,122.604233 
	C257.897766,118.878716 258.173340,115.120056 257.896942,111.400871 
	C257.777161,109.789406 257.149292,107.338371 256.066162,106.876038 
	C254.326035,106.133278 251.632019,106.061928 250.070526,106.966316 
	C248.854507,107.670601 248.748611,110.291557 248.079529,112.401619 
	C244.448624,116.201469 240.887527,119.660431 236.933624,123.084435 
	C231.842911,123.151489 231.050583,119.007446 229.058792,116.167419 
	C245.859802,99.575356 262.660797,82.983292 279.732422,66.199539 
z"/>
<path fill="#141B20" opacity="1.000000" stroke="none" 
	d="
M228.764008,116.312485 
	C231.050583,119.007446 231.842911,123.151489 236.808502,123.388474 
	C236.417969,125.949272 231.998840,126.320480 234.037094,130.282776 
	C236.173767,134.775681 238.233459,138.912735 240.497467,142.934769 
	C243.321533,147.951721 244.204895,148.004807 248.628571,144.008621 
	C249.551407,143.702637 250.677383,143.248459 250.681259,142.784897 
	C250.760223,133.360138 250.774277,123.932991 250.576950,114.511009 
	C250.559509,113.677666 248.995193,112.876717 248.149353,112.060722 
	C248.748611,110.291557 248.854507,107.670601 250.070526,106.966316 
	C251.632019,106.061928 254.326035,106.133278 256.066162,106.876038 
	C257.149292,107.338371 257.777161,109.789406 257.896942,111.400871 
	C258.173340,115.120056 257.897766,118.878716 258.125946,122.604233 
	C258.176025,123.422546 259.390839,124.169540 260.551392,125.425034 
	C260.964722,129.264923 260.896027,132.629150 260.494751,136.082458 
	C257.692993,138.708191 256.285156,141.142944 260.905365,143.417099 
	C260.927429,145.216736 260.862671,146.606506 260.797882,147.996277 
	C258.952576,149.591858 255.518768,151.248703 255.577484,152.770844 
	C255.719818,156.461578 256.466492,161.123032 258.855988,163.484833 
	C261.934998,166.528122 263.475128,169.244019 262.940430,173.775269 
	C248.123291,158.540756 233.323303,142.867340 217.613190,126.230080 
	C220.143799,123.952034 224.306519,120.204788 228.764008,116.312485 
M227.275589,128.534149 
	C228.222580,128.955826 229.169586,129.377487 230.116577,129.799164 
	C230.249680,129.224152 230.382782,128.649139 230.515869,128.074142 
	C229.481110,128.016449 228.446335,127.958740 227.275589,128.534149 
z"/>
<path fill="#1C2328" opacity="1.000000" stroke="none" 
	d="
M269.588074,27.074780 
	C269.478363,31.877951 269.478363,31.877951 264.566620,31.512058 
	C264.703430,30.300232 264.839111,29.098362 264.986694,27.536421 
	C266.390747,27.118782 267.782928,27.061218 269.588074,27.074780 
z"/>
<path fill="#1C2328" opacity="1.000000" stroke="none" 
	d="
M275.613525,28.669827 
	C274.712952,28.589058 273.915558,28.168379 273.058594,27.459770 
	C273.904877,27.557865 274.810791,27.943890 275.613525,28.669827 
z"/>
<path fill="#1C2328" opacity="1.000000" stroke="none" 
	d="
M258.671875,27.027719 
	C258.368347,27.278204 257.736145,27.442728 257.051941,27.336491 
	C257.447662,27.024405 257.895477,26.983084 258.671875,27.027719 
z"/>
<path fill="#1C2227" opacity="1.000000" stroke="none" 
	d="
M70.737427,194.266205 
	C71.901131,195.091339 72.881828,196.899399 73.586006,196.797440 
	C75.120964,196.575241 76.961823,195.722366 77.882690,194.518906 
	C80.592026,190.978104 84.979622,189.798798 88.128815,192.841949 
	C81.762527,200.085388 75.378090,206.694473 69.016426,213.279984 
	C70.078438,214.730423 70.851791,215.786636 71.310425,216.942886 
	C70.702599,217.367722 70.409508,217.692520 69.738632,218.111694 
	C69.317909,221.254745 68.478218,224.584396 69.429726,227.282364 
	C70.674606,230.812164 73.643982,230.667709 75.688805,227.415894 
	C76.374069,226.326141 76.645790,224.976318 77.365692,223.684296 
	C78.025414,223.293655 78.425987,222.964066 78.875877,223.038483 
	C79.392532,226.399597 80.251892,228.887283 83.947090,229.175797 
	C84.728806,229.236832 85.407890,230.612335 86.134262,231.382217 
	C84.392021,232.274307 82.689461,233.830612 80.900307,233.937515 
	C74.834206,234.299957 68.737480,234.149628 62.179131,233.847198 
	C61.368275,233.303589 61.030743,233.108002 60.719627,232.935791 
	C60.746040,232.959167 60.816036,232.950317 60.816040,232.950317 
	C60.685513,230.860046 60.554985,228.769775 60.646809,226.086761 
	C60.795124,225.046082 60.721092,224.598129 60.647060,224.150192 
	C60.494148,222.370224 60.341236,220.590256 60.466194,218.023407 
	C60.593300,213.501465 60.442539,209.766403 60.291779,206.031326 
	C63.670856,202.148544 67.049934,198.265778 70.737427,194.266205 
z"/>
<path fill="#1A2125" opacity="1.000000" stroke="none" 
	d="
M86.438980,231.223724 
	C85.407890,230.612335 84.728806,229.236832 83.947090,229.175797 
	C80.251892,228.887283 79.392532,226.399597 78.979996,222.729370 
	C92.327332,208.596207 105.619850,195.176163 119.063255,182.116989 
	C119.433113,183.103119 119.798393,183.717056 119.847847,184.355469 
	C120.233482,189.333237 110.522354,201.190399 105.599434,202.088638 
	C104.296654,202.326340 102.943527,203.221893 101.972076,204.179230 
	C97.880379,208.211472 101.706413,210.483444 104.105911,213.040863 
	C102.637352,214.672180 101.168793,216.303513 99.139023,217.784378 
	C96.675323,218.021286 94.255386,217.857513 93.050919,218.988358 
	C92.237785,219.751755 93.138237,222.340332 93.272186,224.112473 
	C91.096024,226.430054 88.919861,228.747650 86.438980,231.223724 
z"/>
<path fill="#1C2227" opacity="1.000000" stroke="none" 
	d="
M104.414917,212.919403 
	C101.706413,210.483444 97.880379,208.211472 101.972076,204.179230 
	C102.943527,203.221893 104.296654,202.326340 105.599434,202.088638 
	C110.522354,201.190399 120.233482,189.333237 119.847847,184.355469 
	C119.798393,183.717056 119.433113,183.103119 119.165329,181.811401 
	C120.986351,179.396118 122.856171,177.647308 125.046257,176.050537 
	C128.550171,177.897507 130.909836,179.805817 128.344055,183.873535 
	C127.922134,184.542435 128.784042,186.021133 129.052612,187.125580 
	C120.943054,195.683044 112.833488,204.240509 104.414917,212.919403 
z"/>
<path fill="#1A2125" opacity="1.000000" stroke="none" 
	d="
M129.324463,187.020386 
	C128.784042,186.021133 127.922134,184.542435 128.344055,183.873535 
	C130.909836,179.805817 128.550171,177.897507 125.184769,175.762833 
	C126.360405,174.082672 127.717796,172.842270 129.561356,171.688812 
	C131.031693,171.851105 132.015839,171.926468 133.000000,172.001831 
	C135.545181,176.014725 134.085159,179.345215 130.594238,182.369156 
	C136.162430,186.247849 137.665634,191.622284 136.773178,197.333374 
	C136.398621,199.730270 133.729340,201.768570 131.752197,203.986786 
	C131.278427,200.959793 131.155746,197.915924 131.335815,194.110062 
	C131.429016,190.901199 131.219467,188.454330 131.009918,186.007477 
	C130.538712,186.310043 130.067505,186.612610 129.324463,187.020386 
z"/>
<path fill="#1C2328" opacity="1.000000" stroke="none" 
	d="
M94.153122,34.908142 
	C92.439156,35.371342 89.955231,36.425694 88.817688,35.607700 
	C83.457161,31.753002 77.737038,28.996075 71.117554,27.498585 
	C75.280762,27.051373 79.622124,26.509268 83.826424,27.044271 
	C86.072769,27.330122 88.178139,29.345619 90.167191,30.822798 
	C91.599892,31.886799 92.735405,33.350967 94.153122,34.908142 
z"/>
<path fill="#1C2227" opacity="1.000000" stroke="none" 
	d="
M93.566315,223.982864 
	C93.138237,222.340332 92.237785,219.751755 93.050919,218.988358 
	C94.255386,217.857513 96.675323,218.021286 98.832619,217.913055 
	C97.345100,220.079224 95.602768,221.966248 93.566315,223.982864 
z"/>
<path fill="#1C2328" opacity="1.000000" stroke="none" 
	d="
M111.260544,51.460213 
	C110.462173,53.081825 109.688629,54.544758 108.676491,55.818039 
	C108.556427,55.969086 106.383202,54.854389 106.426437,54.712910 
	C106.920410,53.096443 107.659935,51.555012 108.735161,49.828548 
	C109.828804,50.190533 110.521217,50.717522 111.260544,51.460213 
z"/>
<path fill="#20262B" opacity="1.000000" stroke="none" 
	d="
M60.215424,206.483536 
	C60.442539,209.766403 60.593300,213.501465 60.553059,217.582474 
	C60.287727,214.264191 60.213394,210.599960 60.215424,206.483536 
z"/>
<path fill="#20262B" opacity="1.000000" stroke="none" 
	d="
M131.044556,186.449036 
	C131.219467,188.454330 131.429016,190.901199 131.420685,193.659882 
	C131.161591,191.611313 131.120392,189.250961 131.044556,186.449036 
z"/>
<path fill="#20262B" opacity="1.000000" stroke="none" 
	d="
M60.520523,224.419342 
	C60.721092,224.598129 60.795124,225.046082 60.782227,225.649704 
	C60.594860,225.433090 60.494423,225.060791 60.520523,224.419342 
z"/>
<path fill="#F5F7F3" opacity="1.000000" stroke="none" 
	d="
M84.331238,162.887177 
	C84.266663,162.696213 84.370567,162.402222 84.731941,162.139740 
	C84.873657,162.413498 84.710426,162.617798 84.331238,162.887177 
z"/>
<path fill="#F5F7F3" opacity="1.000000" stroke="none" 
	d="
M60.693214,232.912415 
	C61.030743,233.108002 61.368275,233.303589 61.693100,233.791748 
	C61.680386,234.084320 61.409061,234.060898 61.150047,233.774399 
	C60.825092,233.296066 60.759151,233.104233 60.693214,232.912415 
z"/>
<path fill="#20262B" opacity="1.000000" stroke="none" 
	d="
M60.719627,232.935791 
	C60.759151,233.104233 60.825092,233.296066 61.014122,233.766174 
	C60.901894,233.794174 60.666569,233.543915 60.623642,233.121979 
	C60.816036,232.950317 60.746040,232.959167 60.719627,232.935791 
z"/>
<path fill="#1B2226" opacity="1.000000" stroke="none" 
	d="
M183.301056,174.000214 
	C183.301529,194.429138 183.301529,214.358063 183.301529,234.514099 
	C172.689056,234.514099 162.607056,234.514099 152.206818,234.514099 
	C152.206818,181.959030 152.206818,129.597076 152.206818,77.105721 
	C162.539658,77.105721 172.631607,77.105721 183.300583,77.105721 
	C183.300583,109.366478 183.300583,141.433350 183.301056,174.000214 
M162.166214,194.499756 
	C162.166214,204.435928 162.166214,214.372116 162.166214,224.280609 
	C166.384003,224.280609 169.951874,224.280609 173.137848,224.280609 
	C173.137848,178.715942 173.137848,133.492493 173.137848,88.297165 
	C169.170334,88.297165 165.781433,88.297165 162.160950,88.297165 
	C162.160950,123.587036 162.160950,158.543396 162.166214,194.499756 
z"/>
<path fill="#172026" opacity="1.000000" stroke="none" 
	d="
M133.999893,144.999390 
	C134.822815,140.950378 135.001068,136.618469 136.623871,132.920486 
	C138.903015,127.726852 138.590179,122.613281 134.399139,118.601669 
	C130.382080,114.756592 130.566498,112.055443 134.371002,108.025047 
	C136.031952,106.265472 136.789124,103.668556 138.044815,101.502975 
	C138.557983,100.617996 139.304489,99.868332 140.311035,99.025513 
	C140.713211,114.357849 140.749191,129.721771 140.349915,145.543762 
	C139.276657,146.001419 138.638626,146.001007 137.682770,145.857574 
	C136.243256,145.476151 135.121567,145.237762 133.999893,144.999390 
z"/>
<path fill="#141B20" opacity="1.000000" stroke="none" 
	d="
M133.760529,145.247040 
	C135.121567,145.237762 136.243256,145.476151 137.733536,146.160980 
	C138.910156,147.076172 139.718185,147.544937 140.526199,148.013702 
	C140.595169,148.456650 140.664124,148.899597 140.289398,149.688477 
	C139.230270,151.022537 138.614838,152.010666 137.999390,152.998779 
	C137.663254,156.774048 137.654877,160.618378 136.878769,164.300919 
	C136.337921,166.867218 134.744247,169.211609 133.310440,171.828491 
	C132.015839,171.926468 131.031693,171.851105 129.780701,171.322952 
	C129.902100,164.444687 130.290314,158.019226 130.678528,151.593750 
	C130.114365,151.712585 129.550186,151.831406 128.986023,151.950241 
	C128.558395,148.435974 130.369507,146.494461 133.760529,145.247040 
z"/>
<path fill="#1C2328" opacity="1.000000" stroke="none" 
	d="
M140.843109,85.569122 
	C136.006363,85.178917 136.863754,81.057816 135.999176,77.560707 
	C137.462402,77.173866 138.929504,77.173866 140.941101,77.173866 
	C140.941101,79.903763 140.941101,82.517242 140.843109,85.569122 
z"/>
<path fill="#181E23" opacity="1.000000" stroke="none" 
	d="
M138.304367,152.865326 
	C138.614838,152.010666 139.230270,151.022537 140.174942,150.009491 
	C140.579300,150.525879 140.654419,151.067200 140.613098,151.862076 
	C139.867554,152.321060 139.238449,152.526474 138.304367,152.865326 
z"/>
<path fill="#181E23" opacity="1.000000" stroke="none" 
	d="
M140.642731,147.685303 
	C139.718185,147.544937 138.910156,147.076172 138.051376,146.304016 
	C138.638626,146.001007 139.276657,146.001419 140.233673,145.999054 
	C140.621552,146.449814 140.690414,146.903366 140.642731,147.685303 
z"/>
<path fill="#F2F5F0" opacity="1.000000" stroke="none" 
	d="
M128.912170,152.209045 
	C129.550186,151.831406 130.114365,151.712585 130.678528,151.593750 
	C130.290314,158.019226 129.902100,164.444687 129.294525,171.236023 
	C127.717796,172.842270 126.360405,174.082672 124.864502,175.610779 
	C122.856171,177.647308 120.986351,179.396118 119.014450,181.450531 
	C105.619850,195.176163 92.327332,208.596207 78.930679,222.325348 
	C78.425987,222.964066 78.025414,223.293655 77.353897,223.492096 
	C77.082947,223.360931 76.839691,223.062347 76.783356,222.739624 
	C75.026405,220.558884 73.325775,218.700867 71.625145,216.842850 
	C70.851791,215.786636 70.078438,214.730423 69.016426,213.279984 
	C75.378090,206.694473 81.762527,200.085388 88.293770,193.204651 
	C91.515694,189.959549 94.590828,186.986115 98.095032,183.566345 
	C100.473961,181.126541 102.423813,179.133087 104.373665,177.139618 
	C106.873940,174.712753 109.374214,172.285904 112.303879,169.426178 
	C117.798103,163.654175 122.862946,158.315048 127.927795,152.975937 
	C128.231308,152.806580 128.534805,152.637207 128.912170,152.209045 
z"/>
<path fill="#F2F6F3" opacity="1.000000" stroke="none" 
	d="
M70.344269,37.761276 
	C77.039917,34.545223 81.132874,37.905201 85.447411,42.820168 
	C91.467049,49.677532 98.109718,56.030033 104.874153,62.170750 
	C107.563461,64.612091 108.352852,67.085205 108.225739,70.397224 
	C108.080811,74.173592 108.192215,77.959785 108.192215,83.231720 
	C103.848358,79.009750 100.500084,75.766014 97.163445,72.510361 
	C88.387230,63.947163 79.574448,55.420364 70.910210,46.745266 
	C70.084625,45.918652 70.200096,44.152161 69.949661,42.070633 
	C70.128510,40.133263 70.236389,38.947269 70.344269,37.761276 
z"/>
<path fill="#F2F6F3" opacity="1.000000" stroke="none" 
	d="
M130.528778,105.238274 
	C124.401550,99.407394 118.609917,93.415291 112.640526,87.239273 
	C118.653831,87.239273 124.514900,87.239273 130.864380,87.239273 
	C130.864380,93.310432 130.864380,99.193741 130.528778,105.238274 
z"/>
<path fill="#1C2227" opacity="1.000000" stroke="none" 
	d="
M127.577652,152.871872 
	C122.862946,158.315048 117.798103,163.654175 112.415031,169.118378 
	C113.278328,166.406708 114.317230,163.499390 115.676979,160.750809 
	C117.430580,157.206100 119.377853,153.751526 121.373444,150.335098 
	C122.117180,149.061844 123.232330,148.005569 124.605537,146.328293 
	C125.725838,149.079727 126.476677,150.923767 127.577652,152.871872 
z"/>
<path fill="#1C2227" opacity="1.000000" stroke="none" 
	d="
M103.933189,177.105286 
	C102.423813,179.133087 100.473961,181.126541 98.247604,183.240753 
	C95.754364,180.533173 96.431961,177.865829 99.660904,177.154053 
	C100.884804,176.884232 102.212387,177.084778 103.933189,177.105286 
z"/>
<path fill="#1C2328" opacity="1.000000" stroke="none" 
	d="
M70.187866,37.412178 
	C70.236389,38.947269 70.128510,40.133263 69.915306,41.662155 
	C68.613800,41.022057 67.144211,40.217880 66.335541,38.981441 
	C65.924423,38.352852 66.703026,36.946140 66.943810,35.891186 
	C67.973030,36.281818 69.002243,36.672447 70.187866,37.412178 
z"/>
<path fill="#161D22" opacity="1.000000" stroke="none" 
	d="
M191.981995,24.398588 
	C177.970276,24.812025 163.943436,24.874214 149.459534,24.826408 
	C150.307220,23.003353 151.266876,20.425346 152.982056,19.741049 
	C157.928528,17.767567 162.787735,15.365789 168.672241,16.804018 
	C172.420639,17.720161 176.586761,17.167948 180.545151,16.931751 
	C187.789597,16.499477 188.974609,17.131685 191.981995,24.398588 
z"/>
<path fill="#1C2126" opacity="1.000000" stroke="none" 
	d="
M197.000000,24.001221 
	C198.705978,24.297989 200.866241,24.048679 202.020370,25.008804 
	C204.208923,26.829496 203.136093,34.489620 200.397186,36.527046 
	C200.041901,33.419373 203.093643,30.261288 198.794449,27.875710 
	C198.330780,27.549194 198.134750,27.298517 197.964600,26.683058 
	C197.619339,25.577971 197.309677,24.789595 197.000000,24.001221 
z"/>
<path fill="#1E2529" opacity="1.000000" stroke="none" 
	d="
M198.000198,26.999771 
	C198.134750,27.298517 198.330780,27.549194 198.794388,28.280182 
	C198.333603,31.206614 197.666718,33.604664 196.999832,36.002716 
	C196.594772,36.014832 196.189728,36.026947 195.480850,36.044708 
	C195.099808,33.330479 195.022568,30.610603 195.388367,27.444996 
	C196.554321,26.999432 197.277267,26.999601 198.000198,26.999771 
z"/>
<path fill="#1C2328" opacity="1.000000" stroke="none" 
	d="
M197.226807,36.240799 
	C197.666718,33.604664 198.333603,31.206614 199.000549,28.404091 
	C203.093643,30.261288 200.041901,33.419373 200.014191,36.597717 
	C199.150848,36.825787 198.302322,36.652332 197.226807,36.240799 
z"/>
<path fill="#1C2328" opacity="1.000000" stroke="none" 
	d="
M197.964600,26.683058 
	C197.277267,26.999601 196.554321,26.999432 195.469910,26.999329 
	C195.005478,26.626375 194.902496,26.253351 194.824097,25.589842 
	C195.348938,24.903412 195.849213,24.507467 196.674744,24.056372 
	C197.309677,24.789595 197.619339,25.577971 197.964600,26.683058 
z"/>
<path fill="#10161B" opacity="1.000000" stroke="none" 
	d="
M140.617783,47.041870 
	C141.935669,48.892265 142.811310,52.351948 143.885391,52.414688 
	C146.305023,52.556026 148.822891,51.015362 151.649170,50.079178 
	C152.133087,53.919250 148.992477,55.675545 146.321960,55.631157 
	C143.744568,55.588322 141.044724,53.468842 138.788849,51.749649 
	C138.354523,51.418652 139.726761,48.717163 140.617783,47.041870 
z"/>
<path fill="#1B2126" opacity="1.000000" stroke="none" 
	d="
M289.352234,167.426727 
	C288.080353,173.159927 287.006256,178.572632 285.772186,184.791458 
	C285.179779,183.375397 284.176361,182.160507 284.302551,181.077194 
	C284.904510,175.909775 285.864990,170.785294 286.583069,165.629547 
	C286.814789,163.965637 286.989288,162.198151 286.685455,160.572342 
	C285.576019,154.636185 283.978943,148.776413 283.183868,142.805527 
	C282.954346,141.081787 284.323975,138.098770 285.783325,137.391953 
	C290.221741,135.242279 290.823334,132.597290 288.443268,128.652969 
	C288.159668,128.182968 288.333466,127.437019 288.295227,126.818977 
	C288.788666,126.561035 289.282135,126.303085 289.775574,126.045143 
	C291.138855,128.504135 292.982361,130.850189 293.601807,133.484116 
	C293.815186,134.391296 291.166046,136.388397 289.494659,137.240295 
	C285.291992,139.382339 283.741913,145.825012 286.878540,149.354248 
	C288.854462,151.577515 292.242981,153.273422 289.297913,157.101242 
	C289.015747,157.467957 289.464966,158.839661 289.975586,159.301773 
	C293.112701,162.140793 291.480530,164.608780 289.352234,167.426727 
z"/>
<path fill="#1B2126" opacity="1.000000" stroke="none" 
	d="
M285.022827,101.052383 
	C285.175201,95.365707 285.500946,90.063477 285.826660,84.761253 
	C286.397949,84.790733 286.969208,84.820221 287.540466,84.849701 
	C287.859711,97.280991 288.935455,109.719391 285.472473,121.513870 
	C282.570557,119.552879 282.384125,116.772125 283.962982,112.292145 
	C285.142731,108.944618 284.839172,105.074326 285.022827,101.052383 
z"/>
<path fill="#1E2529" opacity="1.000000" stroke="none" 
	d="
M297.407227,216.604721 
	C297.810638,216.041183 298.156830,215.577103 298.270844,215.628448 
	C300.128815,216.465347 301.957428,217.367538 303.792664,218.254990 
	C303.108826,219.148193 302.532074,220.682693 301.721680,220.818039 
	C298.952667,221.280411 296.663391,220.617355 297.407227,216.604721 
z"/>
<path fill="#1B2126" opacity="1.000000" stroke="none" 
	d="
M285.079041,72.401184 
	C285.797119,75.544624 286.315369,78.381142 286.833618,81.217651 
	C286.254517,81.344490 285.675415,81.471329 285.096313,81.598167 
	C284.439301,78.642288 283.764954,75.689690 283.201782,72.716042 
	C283.183258,72.618179 284.294586,72.306343 285.079041,72.401184 
z"/>
<path fill="#1B2126" opacity="1.000000" stroke="none" 
	d="
M299.372803,121.386642 
	C298.599365,121.301254 298.041595,121.003647 297.483856,120.706039 
	C297.895416,120.299995 298.306976,119.893936 298.718506,119.487885 
	C299.008484,120.050064 299.298462,120.612244 299.372803,121.386642 
z"/>
<path fill="#EFF2EF" opacity="1.000000" stroke="none" 
	d="
M85.170837,114.971130 
	C85.295944,110.844635 86.680794,113.262093 87.576218,114.132523 
	C92.348518,118.771660 97.079445,123.453377 101.761429,128.058151 
	C96.509163,133.596771 91.438461,138.943939 86.367752,144.291107 
	C85.971436,144.154709 85.575111,144.018326 85.178795,143.881927 
	C85.178795,134.376282 85.178795,124.870644 85.170837,114.971130 
z"/>
<path fill="#1C2227" opacity="1.000000" stroke="none" 
	d="
M62.368053,106.011932 
	C62.794907,110.972214 62.859306,115.948586 62.842777,121.315033 
	C61.209972,120.541100 59.109997,119.695099 58.213867,118.150612 
	C55.954243,114.256149 58.060959,108.226051 62.368053,106.011932 
z"/>
<path fill="#EFF2EF" opacity="1.000000" stroke="none" 
	d="
M260.827332,135.993378 
	C260.896027,132.629150 260.964722,129.264923 260.934143,125.451889 
	C260.938080,118.520180 261.261047,112.030083 261.049164,105.557495 
	C260.947540,102.453598 261.547791,100.263908 264.089630,98.298531 
	C267.043274,96.014702 269.618561,93.241501 272.977020,90.102104 
	C272.977020,114.988617 272.977020,139.043793 272.977844,163.882111 
	C273.046906,165.101044 273.115143,165.536850 273.183380,165.972656 
	C272.982819,166.328705 272.782288,166.684769 272.122437,166.857574 
	C270.816010,166.010651 269.968903,165.346970 269.121826,164.683289 
	C266.859558,162.159790 264.082031,159.918167 262.498352,157.023407 
	C261.236603,154.717041 261.431549,151.613693 260.888855,148.430206 
	C260.862671,146.606506 260.927429,145.216736 261.003571,142.986908 
	C260.952393,140.095688 260.889862,138.044540 260.827332,135.993378 
z"/>
<path fill="#EAEDEB" opacity="1.000000" stroke="none" 
	d="
M248.079529,112.401619 
	C248.995193,112.876717 250.559509,113.677666 250.576950,114.511009 
	C250.774277,123.932991 250.760223,133.360138 250.681259,142.784897 
	C250.677383,143.248459 249.551407,143.702637 248.480576,143.700439 
	C243.359055,138.785095 238.704926,134.330490 234.050781,129.875870 
	C231.998840,126.320480 236.417969,125.949272 237.201324,123.423431 
	C240.887527,119.660431 244.448624,116.201469 248.079529,112.401619 
z"/>
<path fill="#1B2227" opacity="1.000000" stroke="none" 
	d="
M269.098083,165.045959 
	C269.968903,165.346970 270.816010,166.010651 271.830048,166.955872 
	C271.433655,167.637283 270.870270,168.037170 270.306915,168.437057 
	C269.896057,167.427582 269.485168,166.418121 269.098083,165.045959 
z"/>
<path fill="#1B2227" opacity="1.000000" stroke="none" 
	d="
M273.356964,165.810287 
	C273.115143,165.536850 273.046906,165.101044 273.071533,164.343933 
	C273.286469,164.564392 273.408508,165.106155 273.356964,165.810287 
z"/>
<path fill="#1B2227" opacity="1.000000" stroke="none" 
	d="
M234.037094,130.282776 
	C238.704926,134.330490 243.359055,138.785095 248.161194,143.547882 
	C244.204895,148.004807 243.321533,147.951721 240.497467,142.934769 
	C238.233459,138.912735 236.173767,134.775681 234.037094,130.282776 
z"/>
<path fill="#1B2227" opacity="1.000000" stroke="none" 
	d="
M260.494751,136.082458 
	C260.889862,138.044540 260.952393,140.095688 260.916718,142.577042 
	C256.285156,141.142944 257.692993,138.708191 260.494751,136.082458 
z"/>
<path fill="#1B2227" opacity="1.000000" stroke="none" 
	d="
M227.343567,128.217590 
	C228.446335,127.958740 229.481110,128.016449 230.515869,128.074142 
	C230.382782,128.649139 230.249680,129.224152 230.116577,129.799164 
	C229.169586,129.377487 228.222580,128.955826 227.343567,128.217590 
z"/>
<path fill="#20262B" opacity="1.000000" stroke="none" 
	d="
M76.839691,223.062347 
	C76.839691,223.062347 77.082947,223.360931 77.094742,223.553146 
	C76.645790,224.976318 76.374069,226.326141 75.688805,227.415894 
	C73.643982,230.667709 70.674606,230.812164 69.429726,227.282364 
	C68.478218,224.584396 69.317909,221.254745 69.749481,218.521576 
	C69.534988,224.745163 74.212662,222.277512 76.839691,223.062347 
z"/>
<path fill="#545C5F" opacity="1.000000" stroke="none" 
	d="
M76.783356,222.739624 
	C74.212662,222.277512 69.534988,224.745163 70.127258,218.427216 
	C70.409508,217.692520 70.702599,217.367722 71.310425,216.942886 
	C73.325775,218.700867 75.026405,220.558884 76.783356,222.739624 
z"/>
<path fill="#F4F7F2" opacity="1.000000" stroke="none" 
	d="
M162.163574,193.999756 
	C162.160950,158.543396 162.160950,123.587036 162.160950,88.297165 
	C165.781433,88.297165 169.170334,88.297165 173.137848,88.297165 
	C173.137848,133.492493 173.137848,178.715942 173.137848,224.280609 
	C169.951874,224.280609 166.384003,224.280609 162.166214,224.280609 
	C162.166214,214.372116 162.166214,204.435928 162.163574,193.999756 
z"/>
</svg>